{"glyphs":{"0":{"ha":715,"x_min":61,"x_max":656,"o":"m 654 472 q 628 253 654 347 q 557 106 601 158 q 462 27 513 53 q 357 1 411 1 q 250 28 301 1 q 156 108 199 56 q 87 247 113 160 q 61 443 61 335 l 61 476 q 86 670 61 585 q 154 807 111 756 q 249 885 197 858 q 358 911 301 911 q 465 884 413 911 q 560 805 517 857 q 628 667 603 753 q 654 472 654 581 m 519 460 q 471 767 518 640 q 358 894 424 894 q 247 773 297 894 q 194 460 196 651 q 247 144 196 269 q 358 18 297 18 q 437 78 400 18 q 497 241 474 139 q 519 460 519 343 z "},"1":{"ha":272,"x_min":69,"x_max":203,"o":"m 203 0 l 69 0 l 69 903 l 203 903 l 203 0 z "},"2":{"ha":558,"x_min":56,"x_max":499,"o":"m 497 1 l 57 1 q 56 46 56 26 q 92 209 58 147 q 192 336 125 271 q 358 715 358 500 q 335 834 358 785 q 264 883 313 883 q 183 824 213 883 q 151 660 153 765 l 63 678 q 76 754 63 715 q 115 828 89 793 q 186 887 140 864 q 290 910 232 910 q 438 838 379 910 q 497 678 497 767 q 481 571 497 622 q 443 486 464 519 q 383 415 422 453 q 319 360 343 378 q 249 310 294 342 q 194 271 213 285 q 153 236 176 257 q 121 194 131 215 q 111 151 111 174 l 111 146 l 115 146 q 497 144 196 146 l 497 1 z "},"3":{"ha":568,"x_min":51,"x_max":508,"o":"m 507 260 q 483 133 507 192 q 403 34 458 75 q 269 -7 347 -7 q 119 65 183 -7 q 53 210 56 136 l 136 232 q 190 74 153 133 q 273 15 226 15 q 349 72 319 15 q 379 218 379 129 q 346 400 379 332 q 254 471 313 468 l 254 504 q 326 567 296 507 q 356 697 356 628 q 347 800 356 758 q 324 861 339 842 q 297 888 310 881 q 269 894 285 894 q 186 824 222 894 q 149 669 150 753 l 65 686 q 133 849 78 788 q 268 911 189 911 q 418 844 363 911 q 474 688 474 776 q 440 567 474 611 q 364 503 407 522 q 357 488 356 499 q 367 476 358 478 q 468 406 429 465 q 507 260 507 347 z "},"4":{"ha":572,"x_min":39,"x_max":515,"o":"m 476 1 l 353 1 l 353 229 l 39 229 l 39 258 l 339 911 l 464 911 l 171 253 l 353 253 l 353 572 l 475 572 l 475 249 l 514 249 l 514 229 l 475 229 l 476 1 z "},"5":{"ha":579,"x_min":57,"x_max":526,"o":"m 465 82 q 272 -10 397 -10 q 198 3 233 -10 q 131 40 163 15 q 80 110 100 65 q 57 213 60 154 l 147 225 q 152 165 149 196 q 167 96 156 135 q 203 33 178 57 q 267 8 229 8 q 281 8 274 8 q 347 53 322 14 q 376 265 389 118 q 347 390 371 336 q 294 471 324 443 q 226 516 264 499 q 160 538 188 533 q 104 542 132 542 q 83 540 93 542 l 108 910 l 474 910 l 475 771 l 131 772 l 118 572 l 124 572 q 181 576 142 576 q 252 572 217 576 q 337 549 288 567 q 423 500 386 531 q 488 413 460 469 q 519 281 515 357 q 465 82 525 163 z "},"6":{"ha":604,"x_min":58,"x_max":543,"o":"m 542 283 q 479 76 542 151 q 307 1 417 1 q 167 63 225 1 q 85 216 110 125 q 60 415 60 307 q 92 649 60 539 q 191 835 124 760 q 347 910 258 910 q 528 722 489 910 l 439 696 q 431 740 436 717 q 415 799 426 764 q 384 857 404 835 q 338 879 364 879 q 265 838 296 879 q 213 693 228 786 q 204 526 199 600 l 204 513 l 211 524 q 342 608 263 608 q 481 521 421 608 q 542 283 542 433 m 315 576 q 236 492 265 576 q 207 296 207 407 q 235 103 207 186 q 313 19 264 19 q 392 102 363 19 q 421 293 421 185 q 410 417 421 356 q 375 527 400 479 q 315 576 350 575 z "},"7":{"ha":533,"x_min":44,"x_max":510,"o":"m 88 1 q 228 434 140 232 q 407 767 317 636 l 413 775 l 46 775 l 46 910 q 167 910 58 910 q 382 910 276 910 q 508 911 488 910 l 508 836 q 378 631 442 785 q 278 308 315 478 q 233 1 242 138 l 88 1 z "},"8":{"ha":594,"x_min":63,"x_max":532,"o":"m 532 239 q 469 68 532 140 q 296 -4 406 -4 q 165 33 219 -4 q 87 123 111 69 q 63 239 63 176 q 91 360 63 306 q 171 446 119 415 l 179 450 l 171 456 q 97 543 124 488 q 69 665 69 599 q 92 781 69 726 q 168 872 115 835 q 294 910 221 910 q 423 872 369 910 q 500 781 476 835 q 524 665 524 726 q 497 543 524 599 q 421 456 469 488 l 414 450 l 422 446 q 502 360 472 415 q 532 239 532 304 m 410 215 q 399 321 410 272 q 363 405 389 369 q 296 440 336 440 q 231 402 257 440 q 194 315 204 364 q 183 217 183 267 q 214 74 183 136 q 297 13 244 13 q 380 74 350 13 q 410 215 410 136 m 403 661 q 375 824 403 754 q 297 894 347 894 q 233 858 258 894 q 197 772 207 822 q 188 661 188 722 q 216 520 188 581 q 296 460 244 460 q 358 492 333 460 q 393 567 383 524 q 403 661 403 611 z "},"9":{"ha":604,"x_min":61,"x_max":544,"o":"m 543 496 q 511 262 543 372 q 412 76 479 151 q 256 1 344 1 q 75 189 114 1 l 164 214 q 172 170 167 193 q 188 112 176 147 q 219 53 199 76 q 265 31 240 31 q 339 74 307 31 q 390 218 375 125 q 400 385 404 311 l 399 399 l 392 388 q 263 303 342 303 q 122 390 183 303 q 61 628 61 478 q 124 835 61 760 q 296 910 186 910 q 435 848 378 910 q 518 694 493 786 q 543 496 543 603 m 367 808 q 353 850 367 808 q 290 892 339 892 q 211 808 240 892 q 182 618 182 725 q 192 492 182 554 q 228 383 203 431 q 288 335 253 336 q 367 419 338 335 q 396 615 396 504 q 367 808 396 724 z "},"\u0000":{"ha":0,"x_min":0,"x_max":0,"o":""},"\n":{"ha":0,"x_min":0,"x_max":0,"o":""},"\r":{"ha":0,"x_min":0,"x_max":0,"o":""}," ":{"ha":507,"x_min":0,"x_max":0,"o":""},"!":{"ha":281,"x_min":61,"x_max":219,"o":"m 213 104 q 218 76 218 93 q 213 46 218 58 q 197 22 207 32 q 172 6 186 11 q 140 0 157 0 q 110 6 124 0 q 85 19 96 11 q 67 44 72 31 q 61 72 61 57 q 67 101 61 88 q 83 126 72 115 q 109 145 94 139 q 140 151 124 151 q 169 145 156 151 q 196 129 183 139 q 213 104 207 117 m 154 224 l 115 224 l 72 885 q 80 908 71 897 q 103 918 89 918 l 176 918 q 199 908 190 918 q 207 885 208 897 l 154 224 z "},"\"":{"ha":365,"x_min":46,"x_max":318,"o":"m 101 868 q 144 858 132 868 q 154 831 156 849 l 125 613 l 78 613 l 49 826 q 60 859 46 850 q 101 868 74 868 m 263 868 q 306 858 294 868 q 315 831 318 849 l 288 613 l 240 613 l 211 826 q 222 859 208 850 q 263 868 236 868 z "},"#":{"ha":707,"x_min":50,"x_max":658,"o":"m 650 461 l 525 461 l 482 275 l 614 275 l 593 183 l 461 183 l 419 0 l 376 0 l 419 183 l 247 183 l 206 0 l 124 0 l 165 183 l 51 183 l 74 275 l 186 275 l 231 461 l 81 461 l 88 500 l 238 500 l 274 667 l 356 667 l 318 500 l 490 500 l 528 667 l 568 667 l 532 500 l 658 500 l 650 461 m 440 275 l 483 461 l 311 461 l 268 275 l 440 275 z "},"$":{"ha":699,"x_min":57,"x_max":642,"o":"m 582 426 q 642 276 642 367 q 604 140 642 201 q 501 43 568 78 q 372 8 446 14 l 372 -121 l 328 -121 l 328 8 q 179 47 251 13 q 60 163 97 86 l 58 165 l 81 196 l 83 189 q 192 83 117 119 q 328 47 257 50 l 328 404 q 323 407 326 406 q 318 410 319 408 q 171 488 224 453 q 88 567 117 521 q 58 676 58 613 q 97 817 58 758 q 201 904 136 874 q 328 933 258 931 l 328 1019 l 372 1019 l 372 932 q 504 890 443 925 q 614 774 581 847 l 617 771 l 593 740 l 590 747 q 489 856 560 817 q 372 893 433 888 l 372 561 l 400 547 q 582 426 522 486 m 328 583 l 328 894 q 210 858 253 890 q 161 750 161 821 q 183 681 161 711 q 244 629 206 651 q 328 583 274 611 m 476 89 q 525 207 525 131 q 475 313 525 265 q 372 383 439 347 l 372 47 q 476 89 438 54 z "},"%":{"ha":956,"x_min":46,"x_max":910,"o":"m 460 717 q 402 563 460 622 q 250 503 344 503 q 71 606 128 503 q 46 708 46 650 q 103 860 46 801 q 254 919 161 919 q 403 864 346 919 q 460 717 460 808 m 169 708 q 250 543 169 543 q 326 617 307 543 q 336 718 336 651 q 254 881 336 881 q 169 708 169 881 m 846 368 q 908 214 908 315 q 851 60 908 119 q 700 0 794 0 q 553 58 610 0 q 496 206 496 115 q 553 358 496 299 q 704 417 611 417 q 846 368 786 417 m 778 119 q 786 215 786 154 q 704 376 786 376 q 619 206 619 376 q 700 40 619 40 q 778 119 760 40 m 660 919 l 736 919 l 294 0 l 218 0 l 660 919 z "},"&":{"ha":894,"x_min":47,"x_max":865,"o":"m 694 208 l 864 -3 l 715 -3 l 624 110 q 613 96 619 104 q 582 67 607 88 q 527 30 557 46 q 445 1 497 14 q 333 -12 393 -12 q 158 38 229 -12 q 65 157 88 88 q 50 244 51 201 q 60 319 49 286 q 88 379 72 351 q 128 430 103 407 q 175 469 154 453 q 222 498 196 485 q 261 517 249 511 q 289 529 274 522 q 267 560 285 535 q 241 599 249 585 q 222 638 233 613 q 207 687 210 663 q 208 739 204 711 q 267 845 217 803 q 397 888 318 888 q 491 872 451 888 q 551 829 531 856 q 581 777 572 803 q 590 725 590 751 q 463 557 590 618 q 426 543 426 543 l 667 246 q 722 414 703 315 l 771 414 q 742 313 761 364 q 708 235 724 261 l 694 208 m 472 817 q 463 836 472 817 q 414 854 453 854 q 354 820 375 854 q 333 740 333 786 q 400 574 333 668 q 410 578 404 575 q 432 593 417 581 q 460 622 447 606 q 482 669 472 639 q 492 736 492 700 q 472 817 492 781 m 369 56 q 455 59 418 53 q 517 81 492 65 q 556 107 543 96 q 585 136 568 118 q 593 146 590 143 l 317 493 q 290 481 306 489 q 242 447 275 474 q 197 390 210 421 q 176 256 167 317 q 222 151 186 194 q 297 83 257 107 q 369 56 338 58 z "},"'":{"ha":203,"x_min":46,"x_max":157,"o":"m 101 868 q 144 858 132 868 q 154 831 156 849 l 125 613 l 78 613 l 49 826 q 60 859 46 850 q 101 868 74 868 z "},"(":{"ha":324,"x_min":63,"x_max":325,"o":"m 324 993 q 156 444 156 764 q 324 -103 156 126 l 261 -146 q 117 122 172 -36 q 63 444 63 279 q 117 769 63 613 q 261 1038 172 926 l 324 993 z "},")":{"ha":324,"x_min":-1,"x_max":261,"o":"m 63 1038 q 205 769 150 926 q 260 446 260 613 q 205 122 260 279 q 63 -146 150 -36 l -1 -103 q 168 446 168 126 q -1 993 168 764 l 63 1038 z "},"*":{"ha":381,"x_min":44,"x_max":335,"o":"m 335 858 l 240 778 l 325 704 l 283 654 l 222 707 l 222 613 l 157 613 l 157 707 l 96 654 l 54 704 l 140 778 l 46 858 l 88 908 l 157 849 l 157 944 l 222 944 l 222 849 l 293 908 l 335 858 z "},"+":{"ha":742,"x_min":36,"x_max":706,"o":"m 431 443 l 706 443 l 706 386 l 431 386 l 431 76 l 311 76 l 311 386 l 36 386 l 36 443 l 311 443 l 311 746 l 431 746 l 431 443 z "},",":{"ha":254,"x_min":40,"x_max":217,"o":"m 110 111 q 182 77 149 111 q 215 -19 215 43 q 167 -134 215 -87 q 57 -199 119 -181 l 40 -162 q 140 -56 140 -117 q 120 -12 140 -26 q 60 11 100 1 q 47 24 54 13 q 40 50 40 35 q 59 93 40 75 q 110 111 78 111 z "},"-":{"ha":447,"x_min":39,"x_max":408,"o":"m 407 307 l 39 307 l 39 406 l 407 406 l 407 307 z "},".":{"ha":239,"x_min":43,"x_max":196,"o":"m 64 135 q 74 146 64 135 q 117 157 85 157 q 172 134 150 157 q 194 78 194 111 q 173 22 194 44 q 118 0 151 0 q 64 22 85 0 q 43 78 43 43 q 64 135 43 113 z "},"/":{"ha":536,"x_min":25,"x_max":511,"o":"m 147 1 l 26 1 l 390 919 l 511 919 l 147 1 z "},":":{"ha":256,"x_min":51,"x_max":204,"o":"m 72 135 q 83 146 72 135 q 126 157 93 157 q 181 134 158 157 q 203 78 203 111 q 181 22 203 44 q 126 0 160 0 q 72 22 93 0 q 51 78 51 43 q 72 135 51 113 m 181 533 q 170 522 181 533 q 126 511 160 511 q 72 533 93 511 q 51 589 51 554 q 72 645 51 622 q 126 668 93 668 q 181 645 158 668 q 203 589 203 622 q 181 533 203 554 z "},";":{"ha":272,"x_min":49,"x_max":225,"o":"m 190 513 q 179 501 190 513 q 135 490 168 490 q 81 513 101 490 q 60 569 60 535 q 81 625 60 603 q 135 647 103 647 q 190 625 168 647 q 213 569 213 603 q 190 513 213 535 m 118 111 q 190 77 157 111 q 224 -19 224 43 q 176 -134 224 -87 q 65 -199 128 -181 l 49 -162 q 149 -56 149 -117 q 128 -12 149 -26 q 68 11 108 1 q 56 24 63 13 q 49 50 49 35 q 67 93 49 75 q 118 111 86 111 z "},"<":{"ha":768,"x_min":43,"x_max":719,"o":"m 718 153 l 43 461 l 43 557 l 718 864 l 718 804 l 133 540 l 718 271 l 718 153 z "},"=":{"ha":767,"x_min":49,"x_max":718,"o":"m 718 482 l 49 482 l 49 601 l 718 601 l 718 482 m 718 231 l 49 231 l 49 350 l 718 350 l 718 231 z "},">":{"ha":768,"x_min":49,"x_max":725,"o":"m 49 153 l 49 213 l 633 476 l 49 747 l 49 864 l 724 557 l 724 461 l 49 153 z "},"?":{"ha":667,"x_min":40,"x_max":621,"o":"m 329 129 q 346 104 340 117 q 353 76 351 92 q 347 46 351 58 q 331 22 342 32 q 306 6 319 11 q 274 0 292 0 q 244 6 258 0 q 218 19 229 11 q 200 44 206 31 q 194 72 194 57 q 200 101 194 88 q 217 126 206 115 q 243 145 228 139 q 274 151 258 151 q 303 145 290 151 q 329 129 317 139 m 597 793 q 614 740 608 771 q 618 688 619 708 q 592 594 613 635 q 544 531 572 554 q 482 488 515 507 q 416 449 449 468 q 357 408 383 431 q 314 350 331 386 q 297 265 297 314 l 297 222 l 257 222 l 257 288 q 353 488 257 414 q 368 499 354 489 q 386 513 382 510 q 403 528 390 517 q 422 545 417 539 q 439 564 428 551 q 456 586 450 576 q 469 610 461 596 q 480 638 476 625 q 486 668 483 651 q 489 703 489 685 q 481 772 489 739 q 454 834 472 804 q 403 882 436 864 q 324 900 369 900 q 242 881 276 900 q 192 833 207 861 q 170 772 176 804 q 167 714 164 740 q 178 674 169 688 l 46 674 q 40 704 40 689 l 40 708 q 47 758 40 735 q 68 806 54 782 q 99 846 82 826 q 128 871 106 853 q 160 893 151 889 q 189 907 174 901 q 219 917 204 913 q 250 925 231 921 q 260 927 256 926 q 271 929 265 928 q 282 931 276 931 q 292 932 288 932 q 311 934 301 933 q 331 935 321 935 l 344 935 q 367 931 347 935 q 413 923 386 928 q 454 913 440 918 q 538 867 497 896 q 597 793 578 838 z "},"@":{"ha":1264,"x_min":49,"x_max":1215,"o":"m 876 0 l 792 0 l 792 38 l 785 33 q 643 -7 719 -7 q 535 16 586 -7 q 442 83 483 39 q 379 186 400 129 q 357 306 357 243 q 378 425 357 368 q 442 526 400 482 q 535 594 483 571 q 643 617 586 617 q 725 606 688 617 q 776 583 763 594 l 792 571 l 929 604 l 929 47 q 1054 111 1000 50 q 1131 251 1108 172 q 1146 400 1154 329 q 981 706 1128 583 q 629 829 833 829 q 552 820 594 829 q 460 790 510 811 q 362 739 410 769 q 269 663 314 708 q 192 561 225 617 q 142 429 160 506 q 129 267 125 353 q 156 133 133 200 q 223 1 178 65 q 330 -111 268 -62 q 482 -190 392 -160 q 678 -221 572 -221 q 813 -201 742 -221 q 913 -168 883 -182 q 963 -143 942 -154 l 982 -178 q 638 -262 851 -262 q 481 -243 558 -262 q 331 -181 404 -224 q 201 -79 258 -139 q 106 69 144 -19 q 60 261 68 157 q 85 492 49 382 q 199 686 121 601 q 394 822 279 774 q 639 871 510 871 q 863 832 758 871 q 1040 729 968 793 q 1155 585 1111 665 q 1206 422 1199 506 q 1178 210 1215 306 q 1063 57 1142 114 q 876 0 983 0 m 790 79 l 792 528 q 643 581 728 581 q 546 536 576 581 q 508 435 514 490 q 501 306 501 379 q 508 175 501 231 q 546 74 514 119 q 643 29 576 29 q 790 79 726 29 z "},"A":{"ha":857,"x_min":-8,"x_max":864,"o":"m 138 0 l -8 0 l -8 17 q 48 55 22 25 q 101 154 74 85 l 358 792 q 357 847 369 819 l 332 904 l 331 919 l 446 919 l 763 153 q 864 15 810 38 l 864 0 l 664 0 l 664 17 q 686 32 681 19 q 685 69 693 44 q 651 156 678 93 l 572 347 l 199 350 l 119 156 q 103 38 85 71 q 136 15 113 19 l 138 0 m 381 803 l 204 368 l 561 364 l 381 803 z "},"B":{"ha":729,"x_min":33,"x_max":704,"o":"m 385 511 q 463 515 421 514 q 547 500 504 515 q 625 462 590 485 q 681 394 660 439 q 703 289 703 349 q 681 181 703 231 q 614 90 660 132 q 485 24 568 49 q 293 0 403 0 l 35 0 l 35 17 q 74 57 64 26 q 85 167 85 88 l 85 753 q 74 863 85 832 q 35 901 64 893 l 35 919 l 331 919 q 604 746 604 919 q 574 649 604 690 q 499 586 543 607 q 412 552 456 565 q 338 530 368 539 q 307 514 307 521 q 311 506 307 508 q 326 505 315 504 q 347 506 338 506 q 378 511 357 507 q 385 511 383 511 m 304 19 q 519 86 451 19 q 588 269 588 153 q 536 447 588 392 q 351 486 485 501 q 269 511 269 476 q 292 538 269 526 q 347 559 315 549 q 412 586 379 569 q 467 638 444 603 q 489 722 489 672 q 435 853 489 808 q 286 897 382 897 l 189 897 l 189 135 q 201 42 189 64 q 254 19 214 19 l 304 19 z "},"C":{"ha":904,"x_min":31,"x_max":889,"o":"m 513 -14 q 274 40 383 -14 q 98 201 165 94 q 31 447 31 308 q 66 640 31 549 q 160 796 101 732 q 296 897 218 860 q 456 933 374 933 q 562 922 513 933 q 643 892 611 911 q 703 851 675 874 q 749 805 732 828 q 785 762 767 782 q 815 728 803 742 q 845 709 826 714 q 881 714 864 704 l 888 693 q 792 663 833 665 q 722 679 750 661 q 672 725 694 697 q 628 786 649 753 q 585 848 607 819 q 529 896 563 876 q 456 915 496 915 q 355 888 408 915 q 252 810 301 860 q 169 678 203 760 q 136 501 136 597 q 163 322 136 408 q 240 168 190 236 q 369 60 290 100 q 542 19 447 19 q 654 44 599 19 q 750 108 710 69 q 818 181 790 146 q 858 244 846 217 l 881 231 q 858 194 864 203 q 829 153 853 186 q 788 105 806 121 q 738 62 771 89 q 675 22 706 35 q 601 -3 644 8 q 513 -14 558 -14 z "},"D":{"ha":853,"x_min":35,"x_max":824,"o":"m 335 919 q 519 894 436 919 q 656 825 601 868 q 749 724 711 782 q 804 605 788 667 q 822 476 821 543 q 697 133 822 267 q 365 0 572 0 l 35 0 l 35 17 q 74 57 64 26 q 85 167 85 88 l 85 753 q 74 863 85 832 q 35 901 64 893 l 35 919 q 335 919 282 919 m 364 17 q 619 119 531 17 q 707 424 707 221 q 658 662 707 557 q 510 830 610 767 q 274 893 411 893 l 189 892 l 189 17 l 364 17 z "},"E":{"ha":689,"x_min":35,"x_max":668,"o":"m 654 178 l 668 175 l 657 0 l 35 0 l 35 17 q 74 60 64 26 q 85 186 85 93 l 85 771 q 74 865 85 838 q 35 901 64 893 l 35 919 l 358 919 l 622 919 l 636 749 l 622 744 q 532 864 590 829 q 375 899 474 899 l 189 900 l 189 483 q 301 522 240 522 q 365 515 333 522 q 414 499 396 507 q 456 492 432 492 q 506 506 481 493 l 506 447 q 468 433 488 436 q 410 437 449 429 q 311 465 371 444 q 189 454 233 492 l 189 79 q 246 19 189 19 l 410 19 q 563 54 506 19 q 654 178 621 89 z "},"F":{"ha":642,"x_min":35,"x_max":636,"o":"m 375 899 l 189 899 l 189 476 q 205 488 194 481 q 245 506 215 494 q 304 518 275 518 q 369 510 338 518 q 418 495 400 503 q 460 488 436 488 q 510 503 485 489 l 510 443 q 472 429 492 432 q 414 433 453 426 q 315 461 375 440 q 244 471 272 474 q 203 458 217 468 l 189 447 l 189 167 q 199 56 189 86 q 239 17 210 26 l 239 0 l 35 0 l 35 17 q 74 60 64 26 q 85 186 85 93 l 85 771 q 74 865 85 838 q 35 901 64 893 l 35 919 l 358 919 l 622 919 l 636 749 l 622 744 q 532 864 590 829 q 375 899 474 899 z "},"G":{"ha":946,"x_min":29,"x_max":919,"o":"m 918 454 q 863 386 897 408 l 864 0 l 846 0 q 843 10 844 4 q 835 30 842 15 q 823 56 829 44 q 806 77 817 68 q 783 86 794 86 q 760 79 775 88 q 513 -14 653 -14 q 274 40 383 -14 q 98 201 165 94 q 31 447 31 308 q 66 640 31 549 q 160 796 101 732 q 296 897 218 860 q 456 933 374 933 q 562 922 513 933 q 643 892 611 911 q 703 851 675 874 q 749 805 732 828 q 785 762 767 782 q 815 728 803 742 q 845 709 826 714 q 881 714 864 704 l 888 693 q 792 663 833 665 q 722 679 750 661 q 672 725 694 697 q 628 786 649 753 q 585 848 607 819 q 529 896 563 876 q 456 915 496 915 q 355 888 408 915 q 252 810 301 860 q 169 678 203 760 q 136 501 136 597 q 163 322 136 408 q 240 168 190 236 q 369 60 290 100 q 542 19 447 19 q 758 117 653 19 l 758 365 q 682 380 729 368 q 613 396 635 392 q 563 393 592 400 q 543 319 521 374 l 528 310 q 497 373 504 333 q 506 448 490 413 q 561 493 522 483 q 622 491 592 500 q 674 467 651 482 q 737 438 697 451 q 819 424 776 424 q 865 435 843 424 q 896 458 886 447 l 906 471 l 918 454 z "},"H":{"ha":825,"x_min":33,"x_max":790,"o":"m 789 901 q 750 865 761 893 q 739 768 739 836 l 739 167 q 749 57 739 88 q 789 17 760 26 l 789 0 l 585 0 l 585 17 q 625 57 614 26 q 636 167 636 88 l 636 479 q 507 424 572 424 q 408 458 474 424 q 301 493 343 493 q 189 451 236 493 l 189 167 q 199 57 189 88 q 239 17 210 26 l 239 0 l 35 0 l 35 17 q 74 57 64 26 q 85 167 85 88 l 85 774 q 74 865 85 838 q 35 901 63 893 l 35 919 l 239 919 l 239 901 q 200 865 211 893 q 189 768 189 836 q 189 760 189 768 q 189 738 189 753 q 189 704 189 724 q 189 660 189 685 q 189 608 189 635 q 189 551 189 582 q 189 490 189 519 q 322 554 256 554 q 395 540 363 554 q 458 508 428 526 q 511 485 488 490 q 553 481 538 482 q 588 487 569 479 q 614 499 606 494 q 635 513 622 504 l 635 774 q 624 865 635 838 q 585 901 613 893 l 585 919 l 789 919 l 789 901 z "},"I":{"ha":274,"x_min":35,"x_max":239,"o":"m 239 901 q 200 865 211 893 q 189 768 189 836 l 189 167 q 199 57 189 88 q 239 17 210 26 l 239 0 l 35 0 l 35 17 q 74 57 64 26 q 85 167 85 88 l 85 774 q 74 865 85 838 q 35 901 63 893 l 35 919 l 239 919 l 239 901 z "},"J":{"ha":303,"x_min":11,"x_max":272,"o":"m 68 919 l 272 919 l 272 901 q 233 865 244 893 q 222 768 222 836 l 221 225 q 202 116 221 161 q 151 47 183 71 q 84 11 118 22 q 11 -1 50 0 l 11 22 q 90 81 60 32 q 119 214 119 129 l 118 774 q 106 865 118 838 q 68 901 94 893 l 68 919 z "},"K":{"ha":843,"x_min":33,"x_max":853,"o":"m 843 19 q 851 19 849 19 q 853 19 853 19 l 853 0 q 795 -1 838 0 q 739 -1 753 -1 q 680 9 707 -1 q 628 44 653 19 q 590 83 603 68 q 551 135 578 99 q 404 349 522 174 q 364 399 381 383 q 316 424 347 414 q 231 433 285 433 q 189 414 214 424 q 189 167 189 167 q 199 57 189 88 q 239 17 210 26 l 239 0 l 35 0 l 35 17 q 74 57 64 26 q 85 167 85 88 l 85 774 q 74 865 85 838 q 35 901 63 893 l 35 919 l 239 919 l 239 901 q 200 865 211 893 q 189 768 189 836 q 189 439 189 768 q 360 532 243 454 q 525 665 478 610 q 545 691 536 679 q 561 717 554 703 q 573 740 568 732 q 581 765 578 749 q 585 788 583 782 q 587 815 586 794 q 588 840 588 835 q 589 871 589 846 q 589 901 589 896 l 589 919 l 699 919 l 699 901 q 626 743 699 835 q 454 574 554 651 q 261 453 354 496 q 536 342 458 453 q 585 267 550 322 q 626 206 621 213 q 843 19 751 19 z "},"L":{"ha":646,"x_min":33,"x_max":646,"o":"m 631 151 l 644 149 l 622 0 l 35 0 l 35 17 q 74 57 64 26 q 85 167 85 88 l 85 774 q 74 865 85 838 q 35 901 63 893 l 35 919 l 239 919 l 239 901 q 200 865 211 893 q 189 768 189 836 l 189 81 q 246 21 189 21 l 396 21 q 549 51 492 21 q 631 151 607 81 z "},"M":{"ha":1108,"x_min":8,"x_max":1092,"o":"m 175 0 l 8 0 l 8 14 q 101 207 85 33 q 157 763 143 639 q 144 867 164 832 q 86 901 125 901 l 85 919 q 232 919 232 919 l 590 133 l 901 919 l 1046 919 l 1046 901 q 1005 892 1021 901 q 983 863 989 882 q 976 828 978 843 q 976 789 975 813 q 995 503 978 751 q 1022 168 1013 256 q 1044 56 1031 88 q 1090 15 1058 25 l 1090 0 l 874 0 l 874 14 q 916 57 906 22 q 919 168 926 92 q 872 788 872 788 l 561 3 l 538 3 l 182 797 q 154 560 178 797 q 121 211 131 322 q 121 66 111 106 q 175 15 131 26 l 175 0 z "},"N":{"ha":817,"x_min":32,"x_max":786,"o":"m 158 0 l 35 0 l 35 17 q 76 56 65 25 q 88 167 88 88 l 88 775 q 76 867 88 838 q 33 906 64 897 l 33 919 l 143 919 l 707 188 l 708 767 q 649 906 708 888 l 649 919 l 786 919 l 786 906 q 742 867 756 899 q 729 769 729 836 q 729 403 729 765 q 729 0 729 42 l 715 0 l 110 782 l 110 167 q 119 54 110 85 q 158 15 128 24 l 158 0 z "},"O":{"ha":965,"x_min":31,"x_max":935,"o":"m 933 458 q 846 181 933 306 q 622 6 758 56 q 561 -9 604 -1 q 482 -17 518 -17 q 256 47 360 -17 q 91 220 151 111 q 31 458 31 329 q 91 697 31 588 q 256 870 151 807 q 483 933 360 933 q 709 870 606 933 q 873 697 813 807 q 933 458 933 588 m 185 310 q 288 165 226 228 q 416 69 349 103 q 555 31 483 36 q 686 57 626 25 q 809 188 768 99 q 843 389 850 276 q 782 611 836 501 q 679 756 740 693 q 551 852 618 819 q 412 891 483 885 q 279 864 340 897 q 158 735 199 824 q 124 533 117 646 q 185 310 131 419 z "},"P":{"ha":654,"x_min":35,"x_max":636,"o":"m 297 919 q 458 897 389 919 q 564 837 526 875 q 619 755 601 799 q 636 660 636 711 q 543 444 636 525 q 279 364 450 364 l 189 364 l 189 167 q 199 57 189 88 q 239 17 210 26 l 239 0 l 35 0 l 35 17 q 74 57 64 26 q 85 167 85 88 l 85 753 q 74 863 85 832 q 35 903 64 893 l 35 919 q 297 919 274 919 m 276 383 q 460 448 396 383 q 525 631 525 513 q 511 732 525 685 q 467 818 497 779 q 385 879 438 857 q 261 901 332 901 q 189 901 194 901 l 189 383 l 276 383 z "},"Q":{"ha":965,"x_min":31,"x_max":940,"o":"m 933 458 q 826 153 933 288 q 560 -12 718 19 q 577 -23 565 -17 q 627 -42 589 -29 q 705 -57 665 -54 q 803 -47 744 -60 q 917 -4 861 -35 q 924 -15 919 -8 q 934 -40 928 -22 q 938 -74 940 -58 q 918 -103 936 -89 q 867 -122 900 -117 q 753 -121 810 -129 q 656 -96 697 -112 q 582 -61 615 -79 q 532 -29 549 -43 l 515 -17 q 482 -17 488 -17 q 256 47 360 -17 q 91 220 151 111 q 31 458 31 329 q 91 697 31 588 q 256 870 151 807 q 483 933 360 933 q 709 870 606 933 q 873 697 813 807 q 933 458 933 588 m 186 310 q 288 165 226 228 q 417 69 350 103 q 556 31 485 36 q 688 58 626 25 q 810 188 768 99 q 844 389 851 276 q 782 611 836 501 q 678 756 740 693 q 549 852 617 819 q 411 891 482 885 q 279 864 340 897 q 157 735 199 824 q 123 533 115 646 q 186 310 131 419 z "},"R":{"ha":844,"x_min":33,"x_max":854,"o":"m 838 21 l 853 21 l 853 1 q 802 1 839 1 q 753 0 765 0 q 719 7 735 0 q 692 22 703 14 q 669 50 682 31 q 651 81 657 69 q 633 119 646 92 q 614 156 619 146 q 532 342 581 222 q 371 486 465 501 q 289 511 289 472 q 311 538 289 526 q 366 559 333 549 q 431 586 399 569 q 485 638 463 603 q 508 722 508 672 q 455 853 508 808 q 304 897 401 897 l 189 897 l 189 163 q 239 17 193 32 l 239 0 l 35 0 l 35 17 q 74 57 64 26 q 85 167 85 88 l 85 753 q 74 863 85 832 q 35 901 64 893 l 35 919 l 349 919 q 624 746 624 919 q 593 649 624 690 q 519 586 563 607 q 431 552 475 565 q 356 530 388 539 q 325 514 325 521 q 329 506 325 508 q 345 505 333 504 q 367 506 357 506 q 397 511 376 507 q 404 511 401 511 q 537 497 483 524 q 626 382 590 469 q 641 347 626 382 q 674 273 656 313 q 697 222 692 233 q 724 169 710 199 q 747 122 739 139 q 766 86 756 106 q 783 57 776 67 q 799 38 790 47 q 817 24 808 28 q 838 21 826 21 z "},"S":{"ha":658,"x_min":26,"x_max":633,"o":"m 361 515 q 444 479 414 493 q 516 440 475 465 q 578 391 557 415 q 616 331 600 367 q 632 251 632 294 q 587 110 632 172 q 474 18 542 49 q 329 -12 406 -12 q 141 36 225 -12 q 28 168 57 85 l 108 194 q 116 174 111 188 q 140 128 121 161 q 183 71 160 96 q 248 25 207 46 q 335 4 289 4 q 488 56 426 4 q 550 185 550 107 q 533 253 550 221 q 494 308 515 286 q 432 353 472 329 q 367 388 392 376 q 300 417 343 399 q 289 421 292 419 q 186 469 225 447 q 112 520 147 490 q 60 588 76 550 q 44 678 44 626 q 129 858 44 789 q 329 928 214 928 q 478 891 403 928 q 585 793 554 854 l 504 761 q 497 776 501 767 q 477 811 493 786 q 442 856 461 836 q 388 891 422 875 q 313 907 353 907 q 179 860 235 907 q 124 733 124 814 q 138 670 124 700 q 171 621 153 640 q 224 581 189 601 q 282 549 260 560 q 347 521 304 539 q 361 515 356 517 z "},"T":{"ha":667,"x_min":0,"x_max":667,"o":"m 231 17 l 232 17 q 272 57 261 26 q 282 167 282 88 l 282 853 q 269 885 282 872 q 239 897 257 897 l 197 897 q 88 869 129 897 q 14 772 46 842 l 0 775 l 7 919 l 658 919 l 665 775 l 651 772 q 577 869 619 842 q 463 897 535 897 l 429 897 q 399 885 411 897 q 386 853 386 872 l 386 167 q 397 57 386 88 q 438 17 407 26 l 438 0 l 231 0 l 231 17 z "},"U":{"ha":829,"x_min":28,"x_max":801,"o":"m 679 919 l 800 919 l 800 901 q 762 862 774 893 q 750 763 750 831 l 750 350 q 664 76 750 164 q 435 -12 578 -12 q 303 6 364 -12 q 190 63 242 24 q 108 173 138 103 q 78 339 78 243 l 78 775 q 66 865 78 838 q 28 901 54 893 l 28 919 l 232 919 l 232 901 q 194 866 206 893 q 182 775 182 839 l 182 347 q 262 94 182 174 q 476 15 342 15 q 562 31 519 15 q 643 83 604 47 q 706 188 682 119 q 729 347 729 256 l 729 767 q 717 863 729 832 q 679 901 706 893 l 679 919 z "},"V":{"ha":831,"x_min":-7,"x_max":838,"o":"m 401 0 l 99 751 q -7 906 46 886 l -7 919 l 204 919 l 204 906 q 179 890 186 904 q 193 792 167 867 l 461 117 q 724 790 724 788 q 726 799 725 793 q 739 835 735 822 q 746 867 743 849 q 741 895 749 886 q 715 904 733 904 l 717 919 l 838 919 l 838 907 q 746 788 786 889 l 436 0 l 401 0 z "},"W":{"ha":1264,"x_min":-7,"x_max":1271,"o":"m 1149 919 l 1269 919 l 1269 907 q 1178 788 1219 889 l 869 0 l 835 0 l 633 501 l 436 0 l 401 0 l 99 751 q -7 906 46 886 l -7 919 l 204 919 l 204 906 q 179 890 186 904 q 193 792 167 867 l 461 117 q 622 529 547 340 l 532 751 q 425 906 478 886 l 425 919 l 636 919 l 636 906 q 611 890 618 904 q 625 792 599 867 q 675 665 626 789 q 700 728 688 696 q 718 776 713 761 q 724 790 724 790 q 726 799 725 793 q 739 835 735 822 q 746 867 743 849 q 741 895 749 886 q 715 904 733 904 l 717 919 l 838 919 l 838 907 q 746 788 786 889 l 686 638 l 893 117 q 1157 790 1156 788 q 1160 799 1157 793 q 1172 835 1168 822 q 1178 867 1175 849 q 1173 895 1181 886 q 1149 904 1165 904 l 1149 919 z "},"X":{"ha":735,"x_min":-1,"x_max":736,"o":"m 625 143 q 687 54 663 81 q 735 17 711 28 l 735 0 l 539 0 l 539 17 q 559 46 563 31 q 522 119 556 61 q 508 143 513 135 l 336 438 l 144 139 q 111 75 119 100 q 110 36 103 50 q 143 17 118 22 l 143 0 l -1 0 l -1 17 q 55 53 28 28 q 121 139 82 78 l 325 457 l 150 757 q 26 901 75 883 l 26 919 l 239 919 l 239 903 q 244 799 192 888 q 397 533 397 533 q 567 799 550 772 q 590 844 582 824 q 593 881 597 865 q 572 903 589 897 l 572 919 l 696 919 l 696 901 q 579 779 646 882 l 411 514 l 625 143 z "},"Y":{"ha":708,"x_min":-8,"x_max":718,"o":"m 589 919 l 717 919 l 717 901 q 658 860 689 890 q 606 790 628 829 l 403 417 l 403 167 q 413 57 403 88 q 454 17 424 26 l 454 0 l 247 0 l 247 17 q 287 57 276 26 q 297 167 297 88 l 297 414 l 114 758 q -8 901 40 883 l -8 919 l 204 919 l 204 903 q 208 797 158 889 q 397 447 397 447 q 590 806 576 779 q 605 842 600 824 q 607 879 610 861 q 589 903 604 897 l 589 919 z "},"Z":{"ha":665,"x_min":8,"x_max":650,"o":"m 10 0 l 10 17 l 526 899 l 308 899 q 162 863 213 899 q 76 735 111 826 l 63 735 l 82 919 l 647 919 l 647 901 l 126 21 l 383 21 q 551 53 499 21 q 636 172 604 86 l 649 172 l 626 0 l 10 0 z "},"[":{"ha":232,"x_min":69,"x_max":303,"o":"m 301 938 l 161 938 l 161 -54 l 301 -54 l 301 -146 l 69 -146 l 69 1029 l 301 1029 l 301 938 z "},"\\":{"ha":536,"x_min":22,"x_max":508,"o":"m 507 0 l 388 0 l 24 918 l 144 918 l 507 0 z "},"]":{"ha":232,"x_min":-71,"x_max":163,"o":"m -71 1029 l 161 1029 l 161 -146 l -71 -146 l -71 -54 l 69 -54 l 69 938 l -71 938 l -71 1029 z "},"_":{"ha":854,"x_min":69,"x_max":785,"o":"m 785 -153 l 69 -153 l 69 -74 l 785 -74 l 785 -153 z "},"a":{"ha":611,"x_min":32,"x_max":588,"o":"m 535 163 q 545 56 535 86 q 586 17 556 25 l 585 3 l 568 6 q 528 6 542 6 q 495 10 514 7 q 467 21 476 14 q 450 42 457 28 q 443 76 443 56 l 443 106 q 435 94 440 101 q 409 70 429 88 q 365 39 389 53 q 302 14 342 25 q 219 3 263 3 q 90 53 146 3 q 33 183 33 104 q 65 288 33 242 q 142 362 96 335 q 247 408 189 389 q 354 433 306 426 q 443 440 403 440 q 437 497 443 469 q 415 555 431 525 q 369 603 400 585 q 292 621 338 621 q 233 605 260 621 q 191 566 206 589 q 166 521 176 543 q 153 482 156 499 l 150 467 l 68 467 q 82 515 68 488 q 122 571 96 543 q 193 618 147 599 q 292 638 239 638 q 469 579 403 638 q 535 414 535 521 l 535 163 m 443 126 l 443 424 q 346 411 396 424 q 247 374 296 399 q 166 301 197 349 q 135 190 135 253 q 165 101 135 140 q 241 49 196 63 q 342 53 286 35 q 443 126 397 72 z "},"b":{"ha":697,"x_min":11,"x_max":663,"o":"m 390 638 q 585 551 508 638 q 661 333 661 465 q 626 172 661 249 q 522 44 592 94 q 365 -6 453 -6 q 156 60 253 -6 q 142 58 149 64 l 76 3 l 63 3 q 63 886 63 669 l 13 901 l 13 922 l 156 882 l 156 557 q 390 638 286 638 m 365 10 q 517 77 460 10 q 574 261 574 144 q 567 342 574 300 q 544 431 561 383 q 500 516 526 479 q 430 577 474 553 q 331 601 386 601 q 163 543 250 601 q 156 532 156 539 l 156 90 q 161 81 156 83 q 365 10 256 10 z "},"c":{"ha":640,"x_min":32,"x_max":624,"o":"m 615 176 l 624 164 q 328 -8 490 -8 q 187 25 253 -8 q 77 130 121 58 q 33 297 33 201 q 110 519 33 422 q 307 633 186 615 q 588 513 504 661 l 501 486 q 494 501 499 492 q 474 535 490 511 q 438 576 457 558 q 385 609 418 594 q 315 621 353 624 q 168 542 219 617 q 117 358 117 467 q 192 146 117 226 q 390 65 268 65 q 615 176 518 65 z "},"d":{"ha":706,"x_min":33,"x_max":679,"o":"m 679 901 l 629 888 l 629 69 q 676 14 629 14 l 676 3 l 629 3 q 558 35 579 3 q 536 114 536 68 q 510 86 526 101 q 465 48 494 71 q 393 10 435 25 q 308 -6 351 -6 q 113 87 192 -6 q 33 311 33 179 q 44 394 33 351 q 77 480 54 438 q 133 556 100 522 q 217 610 167 589 q 329 631 268 631 q 451 593 399 631 q 536 510 504 556 l 536 882 l 679 922 l 679 901 m 536 131 l 536 461 q 460 569 521 521 q 328 618 400 618 q 178 553 233 618 q 122 378 122 488 q 147 222 122 294 q 229 99 172 149 q 365 49 286 49 q 536 131 454 49 z "},"e":{"ha":650,"x_min":32,"x_max":624,"o":"m 615 178 l 624 165 q 328 -7 490 -7 q 188 27 254 -7 q 78 133 122 61 q 33 299 33 204 q 60 440 33 375 q 131 548 88 506 q 230 614 175 590 q 342 638 285 638 q 538 571 465 638 q 613 418 610 504 l 117 418 q 111 351 108 389 q 122 275 114 314 q 151 199 129 236 q 204 132 174 161 q 283 85 235 103 q 390 67 331 67 q 615 178 518 67 m 338 626 q 203 570 272 626 q 118 431 133 514 l 457 432 q 493 450 481 432 q 503 494 506 468 q 452 587 496 547 q 338 626 408 626 z "},"f":{"ha":332,"x_min":24,"x_max":408,"o":"m 408 857 q 395 864 403 860 q 364 878 388 868 q 319 893 340 888 q 271 899 297 899 q 226 890 244 899 q 194 856 207 881 q 182 792 182 831 l 182 638 l 331 638 l 331 624 l 182 624 l 182 163 q 193 53 182 85 q 235 14 204 22 l 235 3 l 38 3 l 38 17 q 78 53 67 24 q 89 156 89 82 l 89 624 l 24 624 l 24 638 l 89 638 l 89 719 q 225 911 89 881 q 299 920 253 917 q 376 924 344 924 l 408 922 l 408 857 z "},"g":{"ha":625,"x_min":19,"x_max":614,"o":"m 557 -28 q 567 -33 561 -29 q 586 -48 574 -36 q 606 -73 599 -60 q 613 -107 614 -86 q 596 -150 611 -128 q 517 -215 569 -190 q 424 -244 464 -239 q 346 -250 383 -250 q 151 -205 242 -250 q 40 -103 60 -160 q 48 6 19 -43 q 153 71 76 56 l 376 113 q 522 193 522 136 q 482 246 522 218 q 392 185 443 207 q 296 164 340 164 q 150 192 203 164 q 35 389 35 254 q 108 560 35 488 q 285 636 182 632 q 339 633 314 638 q 425 606 383 626 q 543 654 489 654 l 543 613 q 439 597 478 619 q 524 518 492 567 q 556 411 556 469 q 493 258 556 326 q 563 206 533 238 q 593 142 593 174 q 408 24 593 57 q 215 -8 229 -8 q 176 -15 193 -11 q 141 -22 160 -18 q 110 -31 122 -26 q 85 -40 99 -35 q 65 -52 71 -46 q 53 -66 60 -58 q 48 -81 46 -74 q 53 -100 50 -89 q 159 -192 75 -150 q 347 -233 243 -233 q 522 -174 463 -233 q 557 -28 582 -114 m 450 267 q 465 351 465 306 q 401 547 465 464 q 257 622 338 629 q 165 569 204 617 q 126 447 126 522 q 147 328 126 388 q 215 224 168 268 q 321 179 261 179 q 449 265 414 179 q 450 267 450 267 z "},"h":{"ha":681,"x_min":26,"x_max":657,"o":"m 604 163 q 615 53 604 85 q 657 14 626 22 l 657 3 l 461 3 l 461 17 q 501 54 490 24 q 513 163 513 85 l 513 396 q 469 549 513 497 q 343 601 426 601 q 174 532 269 601 l 174 142 q 178 65 174 89 q 191 33 182 42 q 224 14 200 24 l 224 3 l 26 3 l 26 17 q 68 47 57 24 q 79 143 79 71 q 79 886 79 846 l 29 901 l 29 922 l 174 882 l 174 549 q 408 638 307 638 q 553 582 503 638 q 604 421 604 526 l 604 163 z "},"i":{"ha":256,"x_min":29,"x_max":228,"o":"m 176 142 q 181 65 176 89 q 194 33 185 42 q 226 14 203 24 l 226 3 l 29 3 l 29 17 q 71 47 60 24 q 82 143 82 71 q 82 601 82 560 l 32 617 l 32 638 l 176 597 l 176 142 m 176 820 q 168 811 176 820 q 135 803 160 803 q 94 820 111 803 q 78 861 78 838 q 94 903 78 886 q 136 919 111 919 q 177 903 161 919 q 193 861 193 886 q 176 820 193 838 z "},"j":{"ha":235,"x_min":-135,"x_max":193,"o":"m 135 919 q 176 903 160 919 q 192 861 192 886 q 175 820 192 838 q 135 803 158 803 q 94 820 111 803 q 76 861 76 838 q 93 903 76 886 q 135 919 110 919 m 28 617 l 28 638 l 172 597 l 172 -26 q 158 -141 172 -94 q 117 -210 143 -187 q 62 -242 90 -233 q -3 -251 33 -251 q -82 -237 -43 -251 q -135 -211 -121 -222 l -118 -164 q -102 -184 -112 -172 q -61 -217 -92 -196 q -3 -237 -31 -237 q 25 -234 13 -237 q 46 -222 38 -231 q 60 -206 54 -214 q 70 -181 67 -197 q 76 -153 74 -165 q 78 -121 78 -142 q 78 -87 78 -100 q 78 -49 78 -74 q 78 -11 78 -24 q 78 601 78 585 l 28 617 z "},"k":{"ha":633,"x_min":26,"x_max":632,"o":"m 560 65 q 632 13 603 13 l 632 3 l 567 3 q 442 61 490 3 q 188 376 188 376 l 174 375 l 174 142 q 178 65 174 89 q 191 33 182 42 q 224 14 200 24 l 224 3 l 26 3 l 26 17 q 68 47 57 24 q 79 143 79 71 q 79 886 79 846 l 29 901 l 29 922 l 174 882 l 174 393 q 310 443 249 404 q 444 622 425 518 q 446 638 446 638 l 510 638 q 457 545 510 604 q 325 436 404 486 l 279 408 q 560 65 463 186 z "},"l":{"ha":253,"x_min":26,"x_max":225,"o":"m 174 142 q 178 65 174 89 q 191 33 182 42 q 224 14 200 24 l 224 3 l 26 3 l 26 17 q 68 47 57 24 q 79 143 79 71 q 79 886 79 846 l 29 901 l 29 922 l 174 882 l 174 142 z "},"m":{"ha":1054,"x_min":29,"x_max":1031,"o":"m 978 163 q 989 53 978 85 q 1031 14 1000 22 l 1031 3 l 835 3 l 835 17 q 875 54 864 24 q 886 163 886 85 l 886 396 q 843 549 886 497 q 717 601 800 601 q 558 540 653 601 q 582 421 582 490 l 582 163 q 593 53 582 85 q 635 14 604 22 l 635 3 l 439 3 l 439 17 q 478 54 468 24 q 489 163 489 85 l 489 396 q 343 601 489 601 q 176 532 272 601 l 176 142 q 181 65 176 89 q 194 33 185 42 q 226 14 203 24 l 226 3 l 29 3 l 29 17 q 71 47 60 24 q 82 143 82 71 q 82 601 82 560 l 32 617 l 32 638 l 176 597 l 176 549 q 201 565 182 551 q 225 581 219 578 q 248 595 231 585 q 274 610 265 606 q 298 621 282 614 q 326 630 314 628 q 355 635 339 632 q 386 638 371 638 q 551 553 503 638 q 782 638 686 638 q 927 582 876 638 q 978 421 978 526 l 978 163 z "},"n":{"ha":683,"x_min":29,"x_max":660,"o":"m 607 163 q 618 53 607 85 q 660 14 629 22 l 660 3 l 464 3 l 464 17 q 504 54 493 24 q 515 163 515 85 l 515 396 q 472 549 515 497 q 346 601 429 601 q 176 532 272 601 l 176 142 q 181 65 176 89 q 194 33 185 42 q 226 14 203 24 l 226 3 l 29 3 l 29 17 q 71 47 60 24 q 82 143 82 71 q 82 601 82 560 l 32 617 l 32 638 l 176 597 l 176 549 q 411 638 310 638 q 556 582 506 638 q 607 421 607 526 l 607 163 z "},"o":{"ha":719,"x_min":33,"x_max":686,"o":"m 360 638 q 479 618 422 638 q 583 561 536 599 q 657 462 629 524 q 685 321 685 400 q 635 147 685 224 q 513 32 586 71 q 360 -7 440 -7 q 242 13 299 -7 q 138 69 185 32 q 62 168 90 106 q 33 308 33 231 q 82 484 33 407 q 204 599 131 561 q 360 638 278 638 m 397 14 q 490 35 450 14 q 551 90 529 56 q 584 165 574 125 q 594 247 594 204 q 563 410 594 326 q 466 557 531 494 q 324 619 401 619 l 313 619 q 176 551 226 615 q 125 381 125 488 q 143 260 125 322 q 194 142 161 197 q 281 50 228 86 q 397 14 335 14 z "},"p":{"ha":706,"x_min":25,"x_max":672,"o":"m 397 646 q 593 554 514 646 q 672 329 672 463 q 662 247 672 289 q 628 161 651 204 q 572 85 606 118 q 488 31 539 51 q 376 10 438 10 q 254 47 307 10 q 169 131 201 85 l 169 -242 l 26 -282 l 26 -261 l 76 -246 l 76 571 q 29 626 76 626 l 29 638 l 76 638 q 148 606 126 638 q 169 526 169 574 q 195 555 179 540 q 241 593 211 569 q 313 631 271 617 q 397 646 354 646 m 378 24 q 528 89 472 24 q 583 264 583 154 q 558 419 583 347 q 476 542 533 492 q 340 593 419 593 q 169 511 251 593 l 169 181 q 245 72 185 119 q 378 24 306 24 z "},"q":{"ha":697,"x_min":33,"x_max":685,"o":"m 633 -246 l 683 -261 l 683 -282 l 540 -242 l 540 83 q 306 3 410 3 q 111 89 188 3 q 35 307 35 175 q 69 469 35 393 q 174 596 104 546 q 331 646 243 646 q 540 582 443 646 q 554 582 547 576 l 619 638 l 633 638 q 633 -246 633 -29 m 540 108 l 540 551 q 535 561 540 557 q 331 632 440 632 q 179 564 236 632 q 122 381 122 496 q 128 299 122 342 q 152 210 135 257 q 196 126 169 163 q 266 64 222 89 q 365 39 310 39 q 533 97 446 39 q 540 108 540 101 z "},"r":{"ha":435,"x_min":29,"x_max":432,"o":"m 358 638 q 431 628 394 638 q 407 563 429 624 q 392 572 401 567 q 354 586 382 578 q 300 590 326 594 q 176 478 215 579 l 176 142 q 181 65 176 89 q 194 33 185 42 q 226 14 203 24 l 226 3 l 29 3 l 29 17 q 71 47 60 24 q 82 143 82 71 q 82 601 82 560 l 32 617 l 32 638 l 176 597 l 176 514 q 242 600 194 563 q 358 638 289 638 z "},"s":{"ha":517,"x_min":33,"x_max":485,"o":"m 293 369 q 349 351 329 358 q 398 328 368 344 q 444 296 428 313 q 472 252 460 279 q 485 192 485 225 q 422 56 485 114 q 249 -1 360 -1 q 137 15 190 -1 q 58 46 83 31 l 33 63 l 60 110 q 81 88 68 100 q 122 57 94 76 q 186 26 149 38 q 263 14 224 14 q 374 48 326 14 q 422 133 422 82 q 411 182 422 160 q 386 218 400 204 q 342 246 372 232 q 294 267 313 260 q 236 286 275 274 q 83 364 133 318 q 33 488 33 410 q 44 533 33 508 q 75 583 54 558 q 134 625 96 608 q 219 642 172 642 q 446 551 344 642 q 457 542 457 542 l 425 492 q 417 506 422 497 q 392 539 411 515 q 352 580 374 563 q 295 612 331 597 q 222 626 260 626 q 131 598 168 626 q 93 522 93 569 q 106 470 93 493 q 148 430 119 447 q 203 401 176 413 q 275 375 231 390 l 293 369 z "},"t":{"ha":336,"x_min":17,"x_max":324,"o":"m 321 67 l 324 51 q 229 8 264 19 q 160 3 194 -3 q 111 38 131 8 q 92 111 92 67 l 92 618 l 17 618 l 17 638 l 31 638 q 175 747 124 638 q 186 772 186 772 l 203 772 l 203 638 l 322 638 l 322 618 l 203 618 q 203 97 203 217 q 217 59 203 71 q 252 48 232 47 q 290 54 272 49 q 321 67 308 60 z "},"u":{"ha":674,"x_min":25,"x_max":647,"o":"m 593 78 q 599 49 593 61 q 610 32 604 38 q 626 24 617 26 q 638 21 635 21 q 646 21 642 21 l 646 3 l 604 3 q 538 28 567 4 q 500 89 508 51 q 272 4 371 4 q 126 60 176 4 q 75 219 75 115 q 75 601 75 597 l 25 617 l 25 638 l 169 597 l 169 244 q 338 40 169 40 q 499 104 407 40 q 499 601 499 590 l 449 617 l 449 638 l 593 597 l 593 208 l 593 78 z "},"v":{"ha":624,"x_min":1,"x_max":621,"o":"m 499 638 l 619 638 l 619 624 q 528 506 568 607 l 332 3 l 297 3 l 108 469 q 3 624 56 603 l 3 638 l 214 638 l 214 624 q 189 607 196 621 q 203 510 176 583 q 240 415 204 506 q 313 226 275 324 q 356 119 351 129 q 506 507 374 151 q 508 517 507 510 q 521 552 517 539 q 528 585 525 565 q 523 613 531 604 q 499 622 515 622 l 499 638 z "},"w":{"ha":1001,"x_min":3,"x_max":999,"o":"m 876 638 l 999 638 l 999 624 q 907 506 947 607 l 710 3 l 675 3 l 501 436 l 332 3 l 297 3 l 108 469 q 3 624 56 603 l 3 638 l 214 638 l 214 624 q 189 607 196 621 q 203 510 176 583 q 240 415 204 506 q 313 226 275 324 q 356 119 351 129 q 490 464 369 143 l 488 469 q 382 624 435 603 l 382 638 l 592 638 l 592 624 q 567 607 574 621 q 581 510 556 583 q 618 415 582 506 q 692 226 654 324 q 735 119 731 129 q 885 507 753 151 q 888 517 886 510 q 900 552 896 539 q 906 585 904 565 q 901 613 908 604 q 876 622 894 622 l 876 638 z "},"x":{"ha":610,"x_min":6,"x_max":606,"o":"m 474 146 q 549 51 514 86 q 604 17 583 17 l 604 3 l 386 3 l 386 18 q 411 25 404 18 q 413 47 418 32 q 399 80 408 63 q 371 126 389 97 q 268 289 349 163 q 165 126 189 163 q 138 80 147 97 q 124 47 129 63 q 126 25 119 32 q 151 18 133 18 l 151 3 l 25 3 l 25 17 q 81 51 46 17 q 156 146 115 86 q 257 306 169 168 q 138 494 156 467 q 63 590 97 556 q 7 624 28 624 l 7 638 l 225 638 l 226 622 q 201 615 207 622 q 199 593 194 608 q 213 560 203 578 q 240 514 222 543 q 314 397 264 476 q 389 514 364 475 q 417 560 407 543 q 431 593 426 578 q 428 615 435 608 q 403 622 421 622 l 403 638 l 531 638 l 531 624 q 474 589 508 624 q 400 494 439 554 q 326 379 382 468 q 474 146 454 176 z "},"y":{"ha":672,"x_min":0,"x_max":672,"o":"m 521 638 l 672 638 l 672 624 q 617 594 646 624 q 561 494 588 564 q 296 -133 556 482 q 245 -210 275 -182 q 188 -245 215 -239 q 135 -251 160 -251 q 94 -243 110 -250 l 79 -237 l 100 -179 q 115 -185 106 -182 q 149 -194 124 -189 q 195 -199 174 -200 q 240 -181 217 -197 q 278 -132 264 -164 l 336 3 l 315 3 q 111 494 128 450 q 55 594 85 564 q 0 624 25 624 l 0 638 l 236 638 l 236 624 q 214 503 169 624 q 376 100 250 404 q 543 503 517 432 q 521 624 588 624 l 521 638 z "},"z":{"ha":549,"x_min":19,"x_max":528,"o":"m 513 143 l 526 144 l 504 3 l 19 3 l 19 18 l 397 621 l 239 619 q 126 579 178 619 q 57 482 75 539 l 44 482 l 71 638 l 513 638 l 513 625 l 128 22 l 328 22 q 406 35 371 22 q 460 65 440 47 q 492 101 479 83 q 508 131 504 118 l 513 143 z "},"{":{"ha":329,"x_min":42,"x_max":406,"o":"m 404 1014 q 389 1015 399 1015 q 355 1013 379 1015 q 311 1004 331 1011 q 276 978 292 997 q 261 931 261 960 l 261 775 q 262 746 260 772 q 258 674 264 719 q 242 585 251 629 q 208 505 233 542 q 149 458 183 468 q 203 422 181 450 q 237 357 226 393 q 253 286 247 321 q 261 228 260 251 l 261 204 l 261 -10 q 276 -57 261 -37 q 312 -83 290 -76 q 354 -93 333 -90 q 390 -94 375 -96 l 404 -93 l 404 -146 l 338 -146 q 256 -124 292 -146 q 203 -68 221 -101 q 178 -3 186 -35 q 169 58 169 29 q 167 264 169 228 q 151 335 165 303 q 119 384 138 367 q 84 414 101 401 q 56 429 67 426 l 43 433 l 43 474 q 56 478 47 475 q 84 496 64 482 q 120 528 104 510 q 151 579 136 546 q 167 651 165 613 q 169 857 169 688 q 178 918 169 886 q 203 983 186 950 q 256 1039 221 1017 q 338 1061 292 1061 l 404 1061 l 404 1014 z "},"|":{"ha":235,"x_min":69,"x_max":165,"o":"m 165 -153 l 69 -153 l 69 1029 l 165 1029 l 165 -153 z "},"}":{"ha":329,"x_min":-76,"x_max":286,"o":"m 161 651 q 264 490 168 536 q 285 482 282 482 l 285 442 q 273 437 281 440 q 244 419 265 433 q 208 388 224 406 q 178 336 192 369 q 161 264 164 303 q 160 58 160 228 q 151 -3 160 29 q 125 -68 143 -35 q 72 -124 107 -101 q -10 -146 38 -146 l -76 -146 l -76 -99 q -61 -100 -71 -100 q -26 -98 -51 -100 q 17 -89 -1 -96 q 51 -63 36 -82 q 67 -15 67 -44 l 67 140 q 67 169 69 143 q 70 241 64 196 q 85 330 76 286 q 119 410 94 374 q 179 457 144 447 q 125 494 149 465 q 91 558 101 522 q 74 629 81 594 q 68 688 68 664 l 67 711 l 67 925 q -43 1010 67 1006 q -76 1008 -76 1008 l -76 1061 l -10 1061 q 72 1039 38 1061 q 125 983 107 1017 q 151 918 143 950 q 160 857 160 886 q 161 651 160 688 z "}," ":{"ha":436,"x_min":0,"x_max":0,"o":""},"¡":{"ha":274,"x_min":57,"x_max":215,"o":"m 190 758 q 208 735 203 749 q 214 706 214 721 q 208 677 214 690 q 192 653 203 664 q 166 633 181 639 q 135 628 151 628 q 106 633 119 628 q 81 650 92 639 q 63 675 69 661 q 57 703 57 686 q 63 733 57 719 q 79 758 68 747 q 104 774 90 768 q 136 779 118 779 q 165 774 151 779 q 190 758 179 768 m 122 554 l 160 554 l 203 -106 q 195 -129 204 -119 q 172 -139 186 -139 l 99 -139 q 76 -129 85 -139 q 68 -106 67 -119 l 122 554 z "},"¢":{"ha":704,"x_min":51,"x_max":658,"o":"m 635 232 l 658 231 q 588 108 632 154 q 485 35 538 58 q 365 8 428 8 q 286 19 326 8 l 224 -204 l 181 -193 l 244 35 q 144 108 189 61 q 76 219 100 158 q 53 350 53 282 q 76 481 53 418 q 144 592 100 543 q 247 666 190 640 q 365 692 303 692 q 426 685 396 692 l 488 906 l 529 893 l 468 672 q 485 667 482 668 q 588 592 542 640 q 615 554 597 581 q 589 531 613 551 q 457 635 531 606 l 315 122 q 368 76 340 93 q 431 60 393 60 q 501 76 468 60 q 574 133 542 96 q 618 193 606 169 q 635 232 631 217 m 282 168 l 415 647 q 246 628 331 664 q 168 540 179 599 q 174 422 156 481 q 222 289 190 363 q 282 168 251 221 z "},"£":{"ha":751,"x_min":50,"x_max":711,"o":"m 686 78 l 711 31 q 697 24 706 28 q 656 11 688 19 q 588 0 624 3 q 497 6 553 -3 q 382 36 440 14 q 302 51 346 50 q 222 43 258 51 q 156 24 186 35 q 108 4 125 13 l 90 -6 l 50 81 q 62 90 54 83 q 90 116 69 96 q 128 159 110 136 q 165 217 146 182 q 193 288 183 251 q 203 371 203 324 q 188 465 203 418 l 79 465 l 79 510 l 172 510 q 175 826 113 707 q 397 946 238 946 q 451 943 425 946 q 516 927 476 940 q 585 891 556 914 q 640 824 614 868 q 674 719 665 779 l 601 704 q 587 797 601 756 q 548 863 572 839 q 492 901 524 886 q 428 917 461 917 q 363 911 396 917 q 281 856 308 897 q 253 765 254 814 q 262 660 251 715 q 286 567 272 606 q 311 510 300 529 l 500 510 l 500 465 l 326 465 q 334 353 339 407 q 308 249 329 299 q 265 165 288 200 q 222 110 243 131 q 330 106 263 121 q 454 73 397 92 q 578 50 511 54 q 686 78 646 46 z "},"¥":{"ha":807,"x_min":18,"x_max":781,"o":"m 472 307 l 472 286 l 651 286 l 651 243 l 472 243 l 472 161 l 651 161 l 651 117 l 472 117 l 472 0 l 321 0 l 321 117 l 160 117 l 160 161 l 321 161 l 321 243 l 160 243 l 160 286 l 321 286 l 321 307 l 18 911 l 189 911 l 465 369 l 740 911 l 781 911 l 472 307 z "},"§":{"ha":649,"x_min":58,"x_max":589,"o":"m 426 271 q 511 208 481 238 q 563 78 563 156 q 531 -40 563 14 q 442 -124 500 -93 q 307 -154 385 -154 q 163 -120 233 -154 q 61 -21 93 -86 l 60 -18 l 78 8 l 81 3 q 174 -89 110 -57 q 307 -121 239 -121 q 421 -83 379 -121 q 461 18 461 -47 q 419 110 461 69 q 283 193 376 151 q 157 260 203 231 q 85 328 110 289 q 60 424 60 368 q 94 544 60 493 q 183 619 128 594 q 239 638 210 632 q 182 671 206 656 q 110 739 135 700 q 85 835 85 779 q 119 954 85 904 q 208 1030 153 1004 q 329 1056 264 1056 q 469 1019 404 1056 q 564 918 536 982 l 565 915 l 546 889 l 543 894 q 456 988 517 954 q 332 1022 396 1022 q 215 990 257 1022 q 174 899 174 960 q 193 838 174 864 q 246 793 213 813 q 347 739 281 772 l 379 722 q 536 619 485 669 q 588 489 588 567 q 556 371 588 424 q 467 288 525 318 q 426 271 450 279 m 383 296 q 446 326 422 306 q 488 429 488 363 q 444 521 488 481 q 308 604 401 561 q 301 608 306 606 q 293 611 296 610 q 190 581 228 608 q 149 488 149 549 q 168 428 149 453 q 221 382 188 401 q 322 328 254 363 l 354 311 q 383 296 361 308 z "},"©":{"ha":1044,"x_min":56,"x_max":989,"o":"m 288 875 q 342 906 288 875 q 522 938 396 938 q 756 875 649 938 q 926 706 864 813 q 989 472 989 599 q 926 238 989 346 q 756 68 864 131 q 522 6 649 6 q 288 68 396 6 q 118 238 181 131 q 56 472 56 346 q 118 706 56 599 q 288 875 181 813 m 231 181 q 291 120 231 181 q 522 60 351 60 q 813 181 692 60 q 933 472 933 301 q 813 763 933 642 q 522 883 692 883 q 231 763 351 883 q 110 472 110 642 q 231 181 110 301 m 638 254 q 695 299 669 269 q 730 347 721 329 q 743 378 739 365 l 761 378 q 706 281 740 317 q 625 222 667 240 q 530 201 579 201 q 436 222 481 201 q 356 281 392 242 q 301 369 319 321 q 283 472 283 418 q 301 576 283 526 q 356 663 319 625 q 436 722 392 701 q 530 742 481 742 q 624 722 579 742 q 706 663 669 701 q 728 632 713 654 q 706 614 718 625 q 626 687 669 663 q 543 710 583 711 q 479 705 503 710 q 436 690 456 700 q 374 622 382 668 q 378 529 364 575 q 417 422 392 482 q 467 322 443 364 q 532 254 492 281 q 582 242 553 242 q 638 254 611 242 z "},"«":{"ha":546,"x_min":44,"x_max":500,"o":"m 332 419 l 499 153 l 397 153 l 231 419 l 397 686 l 497 686 l 332 419 m 313 686 l 147 419 l 314 153 l 213 153 l 46 419 l 213 686 l 313 686 z "},"­":{"ha":0,"x_min":0,"x_max":0,"o":""},"®":{"ha":636,"x_min":47,"x_max":589,"o":"m 126 1075 q 166 1115 126 1075 q 317 1154 206 1154 q 509 1075 429 1154 q 589 884 589 996 q 509 692 589 772 q 317 613 429 613 q 126 692 206 613 q 47 884 47 772 q 126 1075 47 996 m 148 714 q 183 678 148 714 q 318 643 218 643 q 488 714 418 643 q 558 884 558 785 q 488 1053 558 983 q 318 1124 418 1124 q 148 1053 218 1124 q 78 884 78 983 q 148 714 78 785 m 290 872 q 468 731 317 815 q 472 728 472 728 l 407 728 q 315 783 361 728 q 257 876 269 838 q 255 878 257 878 q 253 876 253 878 l 253 729 q 251 728 253 728 l 201 728 q 200 729 200 728 l 200 1046 q 201 1049 200 1049 l 329 1049 q 383 1035 361 1049 q 415 1002 404 1022 q 426 960 426 982 q 408 907 426 932 q 371 878 393 888 q 322 872 356 872 q 304 872 314 872 q 290 872 294 872 m 254 907 q 314 885 269 885 q 342 895 329 885 q 364 922 356 906 q 372 961 372 939 q 364 999 372 982 q 342 1025 356 1015 q 314 1035 329 1035 l 256 1035 q 253 1033 253 1035 l 253 908 q 254 907 253 908 z "},"°":{"ha":428,"x_min":49,"x_max":378,"o":"m 213 949 q 330 900 282 949 q 378 781 378 851 q 331 660 378 707 q 213 613 283 613 q 96 660 142 613 q 50 781 50 707 q 97 900 50 851 q 213 949 143 949 m 213 689 q 276 714 251 689 q 301 781 301 739 q 276 846 301 819 q 213 872 250 872 q 150 847 174 872 q 126 781 126 821 q 150 714 126 739 q 213 689 174 689 z "},"·":{"ha":239,"x_min":43,"x_max":196,"o":"m 64 440 q 74 451 64 440 q 117 463 85 463 q 172 440 150 463 q 194 383 194 417 q 173 327 194 349 q 118 306 151 306 q 64 327 85 306 q 43 383 43 349 q 64 440 43 417 z "},"»":{"ha":544,"x_min":44,"x_max":499,"o":"m 331 686 l 497 419 l 331 153 l 231 153 l 396 419 l 229 686 l 331 686 m 147 686 l 313 419 l 146 153 l 46 153 l 211 419 l 44 686 l 147 686 z "},"¿":{"ha":656,"x_min":40,"x_max":622,"o":"m 332 667 q 315 692 321 678 q 308 719 310 703 q 314 750 310 736 q 331 774 319 764 q 356 790 342 785 q 388 796 371 796 q 418 790 404 796 q 443 775 432 785 q 461 751 456 765 q 467 722 467 738 q 461 694 467 707 q 444 669 456 681 q 419 650 433 656 q 388 644 404 644 q 358 650 372 644 q 332 667 344 656 m 615 122 q 621 90 621 107 l 621 86 q 614 36 621 60 q 593 -10 607 13 q 563 -50 579 -32 q 533 -76 556 -58 q 501 -99 510 -93 q 472 -111 488 -106 q 442 -122 457 -118 q 411 -129 433 -124 q 400 -132 406 -131 q 390 -133 396 -132 q 379 -135 385 -135 q 369 -136 374 -136 q 350 -138 360 -137 q 331 -139 340 -139 l 317 -139 q 294 -136 314 -139 q 248 -128 275 -133 q 208 -117 221 -122 q 124 -72 164 -100 q 64 3 83 -43 q 48 56 54 25 q 43 108 42 88 q 69 201 49 161 q 117 265 89 240 q 179 308 146 289 q 245 347 213 328 q 304 388 278 365 q 347 446 331 410 q 364 531 364 482 l 364 574 l 404 574 l 404 508 q 310 308 404 382 q 293 297 307 307 q 275 283 279 286 q 258 267 271 279 q 239 250 244 256 q 222 231 233 244 q 206 209 211 218 q 193 185 201 200 q 181 158 185 171 q 175 128 178 144 q 172 93 172 111 q 181 24 172 57 q 208 -40 190 -10 q 260 -87 226 -69 q 338 -106 293 -106 q 419 -86 385 -106 q 469 -38 454 -67 q 491 23 485 -10 q 494 81 497 56 q 485 122 492 107 l 615 122 z "},"À":{"ha":857,"x_min":-10,"x_max":864,"o":"m 439 978 l 392 978 l 243 1150 l 358 1150 l 439 978 m 763 156 q 864 18 810 40 l 864 3 l 664 3 l 664 19 q 686 35 681 22 q 685 72 693 47 q 651 157 678 96 l 572 350 l 199 351 l 119 158 q 103 40 85 74 q 136 17 113 22 l 138 3 l -8 3 l -8 19 q 48 58 22 28 q 101 157 74 88 l 358 794 q 357 849 369 822 l 332 907 l 331 922 l 446 922 l 763 156 m 204 369 l 561 367 l 381 806 l 204 369 z "},"Á":{"ha":857,"x_min":-8,"x_max":864,"o":"m 597 1150 l 447 978 l 400 978 l 481 1150 l 597 1150 m 763 156 q 864 18 810 40 l 864 3 l 664 3 l 664 19 q 686 35 681 22 q 685 72 693 47 q 651 157 678 96 l 572 350 l 199 353 l 119 158 q 103 40 85 74 q 136 18 113 22 l 138 3 l -8 3 l -8 19 q 48 58 22 28 q 101 157 74 88 l 358 794 q 357 850 369 822 l 332 907 l 331 922 l 446 922 l 763 156 m 204 369 l 561 367 l 381 806 l 204 369 z "},"Â":{"ha":857,"x_min":-10,"x_max":864,"o":"m 404 1100 l 332 978 l 258 978 l 363 1150 l 446 1150 l 551 978 l 476 978 l 404 1100 m 763 156 q 864 18 810 40 l 864 3 l 664 3 l 664 19 q 686 35 681 22 q 685 72 693 47 q 651 157 678 96 l 572 350 l 199 351 l 119 158 q 103 40 85 74 q 136 17 113 22 l 138 3 l -8 3 l -8 19 q 48 58 22 28 q 101 157 74 88 l 358 794 q 357 850 369 822 l 332 907 l 331 922 l 446 922 l 763 156 m 204 369 l 561 367 l 381 806 l 204 369 z "},"Ã":{"ha":857,"x_min":-10,"x_max":864,"o":"m 346 1042 q 269 996 301 1040 l 269 1064 q 279 1074 272 1068 q 310 1089 286 1079 q 361 1099 333 1099 q 437 1078 392 1099 q 508 1058 482 1058 q 542 1069 524 1058 q 572 1089 561 1079 l 583 1099 l 583 1033 q 542 1007 558 1013 q 489 1001 525 1001 q 417 1022 465 1001 q 346 1042 369 1042 m 763 156 q 864 18 810 40 l 864 3 l 664 3 l 664 19 q 686 35 681 22 q 685 72 693 47 q 651 157 678 96 l 572 350 l 199 353 l 119 158 q 103 40 85 74 q 136 18 113 22 l 138 3 l -8 3 l -8 19 q 48 58 22 28 q 101 157 74 88 l 358 794 q 357 850 369 822 l 332 907 l 331 922 l 446 922 l 763 156 m 204 369 l 561 367 l 381 806 l 204 369 z "},"Ä":{"ha":857,"x_min":-10,"x_max":864,"o":"m 360 996 q 351 987 360 996 q 315 978 342 978 q 270 996 288 978 q 253 1043 253 1014 q 270 1090 253 1071 q 315 1108 288 1108 q 360 1090 342 1108 q 378 1043 378 1071 q 360 996 378 1014 m 528 996 q 519 987 528 996 q 482 978 510 978 q 437 996 454 978 q 419 1043 419 1014 q 437 1090 419 1071 q 482 1108 454 1108 q 528 1090 510 1108 q 546 1043 546 1071 q 528 996 546 1014 m 763 156 q 864 18 810 40 l 864 3 l 664 3 l 664 19 q 686 35 681 22 q 685 72 693 47 q 651 157 678 96 l 572 350 l 199 353 l 119 158 q 103 40 85 74 q 136 18 113 22 l 138 3 l -8 3 l -8 19 q 48 58 22 28 q 101 157 74 88 l 358 794 q 357 850 369 822 l 332 907 l 331 922 l 446 922 l 763 156 m 204 369 l 561 367 l 381 806 l 204 369 z "},"Å":{"ha":857,"x_min":-8,"x_max":864,"o":"m 462 976 q 445 959 462 976 q 383 943 429 943 q 303 976 336 943 q 271 1055 271 1008 q 303 1134 271 1101 q 383 1167 336 1167 q 462 1134 429 1167 q 494 1055 494 1101 q 462 976 494 1008 m 424 1096 q 415 1104 424 1096 q 383 1113 407 1113 q 342 1096 360 1113 q 325 1056 325 1079 q 342 1015 325 1032 q 383 997 360 997 q 424 1015 407 997 q 440 1056 440 1032 q 424 1096 440 1079 m 763 156 q 864 18 810 40 l 864 3 l 664 3 l 664 19 q 686 35 681 22 q 685 72 693 47 q 651 157 678 96 l 572 350 l 199 351 l 119 158 q 103 40 85 74 q 136 17 113 22 l 138 3 l -8 3 l -8 19 q 48 58 22 28 q 101 157 74 88 l 358 794 q 357 850 369 822 l 332 907 l 331 922 l 446 922 l 763 156 m 204 369 l 561 367 l 381 806 l 204 369 z "},"Æ":{"ha":988,"x_min":-8,"x_max":967,"o":"m 953 181 l 967 178 l 956 3 l 333 3 l 333 19 q 373 63 363 29 q 383 189 383 96 l 383 351 l 199 351 l 119 158 q 103 40 85 74 q 136 17 113 22 l 138 3 l -8 3 l -8 19 q 48 58 22 28 q 101 157 74 88 l 358 794 q 357 849 369 822 l 332 907 l 331 922 q 657 921 624 921 l 921 921 l 935 751 l 921 747 q 831 867 889 832 q 674 901 772 901 l 488 903 l 488 486 q 600 525 539 525 q 663 517 632 525 q 713 502 694 510 q 755 495 731 494 q 804 508 779 496 l 804 450 q 767 435 786 439 q 708 439 747 432 q 610 467 669 446 q 488 457 532 494 l 488 82 q 544 22 488 22 l 708 22 q 862 57 804 22 q 953 181 919 92 m 383 368 l 383 774 q 383 811 383 793 l 204 369 l 383 368 z "},"Ç":{"ha":903,"x_min":31,"x_max":889,"o":"m 542 21 q 654 47 599 21 q 750 110 710 72 q 818 183 790 147 q 858 247 846 219 l 881 232 q 858 197 864 206 q 829 156 853 188 q 788 108 806 124 q 738 65 771 92 q 675 24 706 38 q 601 -1 644 10 q 513 -11 558 -11 q 501 -11 508 -11 q 493 -11 494 -11 l 488 -57 q 499 -60 492 -58 q 523 -72 506 -62 q 552 -94 540 -82 q 572 -128 564 -107 q 575 -175 581 -150 q 547 -228 569 -207 q 496 -254 524 -249 q 441 -261 468 -260 q 396 -260 414 -262 l 378 -257 l 382 -203 q 396 -205 388 -204 q 427 -206 404 -206 q 468 -204 450 -207 q 503 -192 486 -201 q 522 -165 519 -182 q 502 -120 526 -139 q 450 -96 478 -101 l 424 -90 l 435 -6 q 146 142 261 19 q 31 450 31 264 q 66 643 31 551 q 160 799 101 735 q 296 899 218 863 q 456 936 374 936 q 562 925 513 936 q 643 895 611 914 q 703 853 675 876 q 749 808 732 831 q 785 765 767 785 q 815 731 803 744 q 845 712 826 717 q 881 717 864 707 l 888 696 q 792 666 833 668 q 722 681 750 664 q 672 727 694 699 q 628 789 649 756 q 585 851 607 822 q 529 899 563 879 q 456 918 496 918 q 355 890 408 918 q 252 813 301 863 q 169 681 203 763 q 136 504 136 600 q 163 325 136 411 q 240 171 190 239 q 369 62 290 103 q 542 21 447 21 z "},"È":{"ha":689,"x_min":35,"x_max":668,"o":"m 449 978 l 403 978 l 253 1150 l 369 1150 l 449 978 m 654 181 l 668 178 l 657 3 l 35 3 l 35 19 q 74 63 64 29 q 85 188 85 96 l 85 774 q 74 868 85 840 q 35 904 64 896 l 35 921 l 358 921 l 622 921 l 636 751 l 622 747 q 532 867 590 832 q 375 901 474 901 l 189 903 l 189 486 q 301 525 240 525 q 365 517 333 525 q 414 502 396 510 q 456 495 432 494 q 506 508 481 496 l 506 450 q 468 435 488 439 q 410 439 449 432 q 311 467 371 446 q 189 457 233 494 l 189 82 q 246 22 189 22 l 410 22 q 563 57 506 22 q 654 181 621 92 z "},"É":{"ha":689,"x_min":35,"x_max":668,"o":"m 538 1150 l 389 978 l 342 978 l 422 1150 l 538 1150 m 654 181 l 668 178 l 657 3 l 35 3 l 35 19 q 74 63 64 29 q 85 188 85 96 l 85 774 q 74 868 85 840 q 35 904 64 896 l 35 921 l 358 921 l 622 921 l 636 751 l 622 747 q 532 867 590 832 q 375 901 474 901 l 189 903 l 189 486 q 301 525 240 525 q 365 517 333 525 q 414 502 396 510 q 456 495 432 494 q 506 508 481 496 l 506 450 q 468 435 488 439 q 410 439 449 432 q 311 467 371 446 q 189 457 233 494 l 189 82 q 246 22 189 22 l 410 22 q 563 57 506 22 q 654 181 621 92 z "},"Ê":{"ha":689,"x_min":35,"x_max":668,"o":"m 382 1100 l 308 976 l 235 976 l 340 1149 l 424 1149 l 528 976 l 454 976 l 382 1100 m 654 181 l 668 178 l 657 3 l 35 3 l 35 19 q 74 63 64 29 q 85 188 85 96 l 85 774 q 74 868 85 840 q 35 904 64 896 l 35 921 l 358 921 l 622 921 l 636 751 l 622 747 q 532 867 590 832 q 375 901 474 901 l 189 903 l 189 486 q 301 525 240 525 q 365 517 333 525 q 414 502 396 510 q 456 495 432 494 q 506 508 481 496 l 506 450 q 468 435 488 439 q 410 439 449 432 q 311 467 371 446 q 189 457 233 494 l 189 82 q 246 22 189 22 l 410 22 q 563 57 506 22 q 654 181 621 92 z "},"Ë":{"ha":689,"x_min":33,"x_max":668,"o":"m 333 996 q 324 987 333 996 q 288 978 315 978 q 242 996 260 978 q 225 1043 225 1014 q 242 1090 225 1071 q 287 1108 260 1108 q 333 1090 314 1108 q 351 1043 351 1071 q 333 996 351 1014 m 500 996 q 491 987 500 996 q 454 978 482 978 q 410 996 426 978 q 393 1043 393 1014 q 410 1090 393 1071 q 455 1108 428 1108 q 500 1090 482 1108 q 518 1043 518 1071 q 500 996 518 1014 m 654 181 l 668 178 l 657 3 l 35 3 l 35 19 q 74 63 64 29 q 85 188 85 96 l 85 774 q 74 868 85 840 q 35 904 64 896 l 35 921 l 358 921 l 622 921 l 636 751 l 622 747 q 532 867 590 832 q 375 901 474 901 l 189 903 l 189 486 q 301 525 240 525 q 365 517 333 525 q 414 502 396 510 q 456 495 432 494 q 506 508 481 496 l 506 450 q 468 435 488 439 q 410 439 449 432 q 311 467 371 446 q 189 457 233 494 l 189 82 q 246 22 189 22 l 410 22 q 563 57 506 22 q 654 181 621 92 z "},"Ì":{"ha":275,"x_min":-22,"x_max":240,"o":"m 174 978 l 126 978 l -22 1150 l 94 1150 l 174 978 m 239 904 q 201 867 213 896 q 189 771 189 839 l 189 169 q 200 60 189 90 q 239 19 211 29 l 239 3 l 36 3 l 36 19 q 75 60 64 29 q 86 169 86 90 l 86 776 q 74 868 86 840 q 36 904 63 896 l 36 921 l 239 921 l 239 904 z "},"Í":{"ha":275,"x_min":33,"x_max":292,"o":"m 292 1150 l 142 978 l 94 978 l 175 1150 l 292 1150 m 35 904 l 35 921 l 239 921 l 239 904 q 200 867 211 896 q 189 771 189 839 l 189 169 q 199 60 189 90 q 239 19 210 29 l 239 3 l 35 3 l 35 19 q 74 60 64 29 q 85 169 85 90 l 85 776 q 74 868 85 840 q 35 904 63 896 z "},"Î":{"ha":274,"x_min":-10,"x_max":283,"o":"m 136 1100 l 64 978 l -10 978 l 96 1150 l 178 1150 l 283 978 l 210 978 l 136 1100 m 35 904 l 35 921 l 239 921 l 239 904 q 200 867 211 896 q 189 771 189 839 l 188 169 q 199 60 188 90 q 239 19 210 29 l 239 3 l 35 3 l 35 19 q 74 60 64 29 q 85 169 85 90 l 85 776 q 73 868 85 840 q 35 904 61 896 z "},"Ï":{"ha":275,"x_min":-11,"x_max":285,"o":"m 175 1090 q 184 1099 175 1090 q 220 1108 193 1108 q 265 1090 247 1108 q 283 1043 283 1071 q 265 996 283 1014 q 219 978 247 978 q 174 996 192 978 q 157 1043 157 1014 q 175 1090 157 1071 m 117 1043 q 99 996 117 1014 q 53 978 81 978 q 8 996 25 978 q -10 1043 -10 1014 q 8 1090 -10 1071 q 52 1108 25 1108 q 98 1090 79 1108 q 117 1043 117 1071 m 35 904 l 35 921 l 239 921 l 239 904 q 200 867 211 896 q 189 771 189 839 l 189 169 q 199 60 189 90 q 239 19 210 29 l 239 3 l 35 3 l 35 19 q 75 60 64 29 q 86 169 86 90 l 85 776 q 74 868 85 840 q 35 904 63 896 z "},"Ñ":{"ha":817,"x_min":32,"x_max":786,"o":"m 329 1042 q 253 996 285 1040 l 253 1064 q 262 1074 256 1068 q 292 1089 268 1079 q 344 1099 317 1099 q 420 1078 375 1099 q 492 1058 465 1058 q 526 1069 507 1058 q 556 1089 544 1079 l 567 1099 l 567 1033 q 525 1007 542 1013 q 471 1001 508 1001 q 400 1022 449 1001 q 329 1042 351 1042 m 649 922 l 786 922 l 786 908 q 742 870 756 901 q 729 772 729 839 q 729 590 729 769 q 729 215 729 410 q 729 3 729 21 l 715 3 l 110 785 l 110 169 q 119 57 110 88 q 158 18 128 26 l 158 3 l 35 3 l 35 19 q 76 59 65 28 q 88 169 88 90 l 88 778 q 76 869 88 840 q 33 908 64 899 l 33 922 l 143 922 l 707 190 l 708 769 q 649 908 708 890 l 649 922 z "},"Ò":{"ha":965,"x_min":31,"x_max":935,"o":"m 519 978 l 472 978 l 324 1150 l 439 1150 l 519 978 m 256 873 q 308 905 256 873 q 483 936 360 936 q 709 873 606 936 q 873 700 813 810 q 933 461 933 590 q 846 183 933 308 q 622 8 758 58 q 561 -6 604 1 q 482 -14 518 -14 q 256 49 360 -14 q 91 222 151 113 q 31 461 31 332 q 91 700 31 590 q 256 873 151 810 m 688 60 q 810 190 768 101 q 844 391 851 278 q 782 614 836 504 q 679 759 740 696 q 551 855 618 822 q 412 893 483 888 q 279 867 340 899 q 158 738 199 826 q 124 535 117 649 q 185 313 131 422 q 288 167 226 231 q 416 72 349 104 q 555 33 483 39 q 688 60 626 28 z "},"Ó":{"ha":965,"x_min":31,"x_max":935,"o":"m 647 1150 l 497 978 l 451 978 l 531 1150 l 647 1150 m 256 873 q 308 905 256 873 q 483 936 360 936 q 709 873 606 936 q 873 700 813 810 q 933 461 933 590 q 846 183 933 308 q 622 8 758 58 q 561 -6 604 1 q 482 -14 518 -14 q 256 49 360 -14 q 91 222 151 113 q 31 461 31 332 q 91 700 31 590 q 256 873 151 810 m 688 60 q 810 190 768 101 q 844 391 851 278 q 782 614 836 504 q 679 759 740 696 q 551 855 618 822 q 412 893 483 888 q 279 867 340 899 q 158 738 199 826 q 124 535 117 649 q 185 313 131 422 q 288 167 226 231 q 416 72 349 104 q 555 33 483 39 q 688 60 626 28 z "},"Ô":{"ha":965,"x_min":31,"x_max":935,"o":"m 482 1100 l 410 978 l 335 978 l 440 1150 l 524 1150 l 628 978 l 554 978 l 482 1100 m 256 873 q 308 905 256 873 q 483 936 360 936 q 709 873 606 936 q 873 700 813 810 q 933 461 933 590 q 846 183 933 308 q 622 8 758 58 q 561 -6 604 1 q 482 -14 518 -14 q 256 49 360 -14 q 91 222 151 113 q 31 461 31 332 q 91 700 31 590 q 256 873 151 810 m 686 60 q 809 190 768 101 q 843 391 850 278 q 782 614 836 504 q 679 759 740 696 q 551 855 618 822 q 412 893 483 888 q 279 867 340 899 q 157 738 199 826 q 123 535 115 649 q 185 313 131 422 q 288 167 226 231 q 416 72 349 104 q 555 33 483 39 q 686 60 626 28 z "},"Õ":{"ha":965,"x_min":29,"x_max":935,"o":"m 401 1042 q 325 996 358 1040 l 325 1064 q 335 1074 329 1068 q 365 1089 342 1079 q 418 1099 389 1099 q 492 1078 447 1099 q 564 1058 538 1058 q 598 1069 579 1058 q 628 1089 617 1079 l 639 1099 l 639 1033 q 598 1007 615 1013 q 544 1001 581 1001 q 473 1022 521 1001 q 401 1042 425 1042 m 256 873 q 308 905 256 873 q 483 936 360 936 q 709 873 606 936 q 873 700 813 810 q 933 461 933 590 q 846 183 933 308 q 622 8 758 58 q 561 -6 604 1 q 482 -14 518 -14 q 256 49 360 -14 q 91 222 151 113 q 31 461 31 332 q 91 700 31 590 q 256 873 151 810 m 688 60 q 809 190 768 101 q 843 391 850 278 q 782 614 836 504 q 679 759 740 696 q 551 855 618 822 q 412 893 483 888 q 279 867 340 899 q 158 738 199 826 q 124 535 117 649 q 185 313 131 422 q 288 167 226 231 q 416 72 349 104 q 555 33 483 39 q 688 60 626 28 z "},"Ö":{"ha":965,"x_min":31,"x_max":935,"o":"m 433 996 q 423 987 433 996 q 387 978 414 978 q 342 996 360 978 q 325 1043 325 1014 q 342 1090 325 1071 q 387 1108 360 1108 q 433 1090 414 1108 q 451 1043 451 1071 q 433 996 451 1014 m 600 996 q 591 987 600 996 q 554 978 582 978 q 509 996 526 978 q 492 1043 492 1014 q 509 1090 492 1071 q 554 1108 526 1108 q 600 1090 582 1108 q 618 1043 618 1071 q 600 996 618 1014 m 256 873 q 308 905 256 873 q 483 936 360 936 q 709 873 606 936 q 873 700 813 810 q 933 461 933 590 q 846 183 933 308 q 622 8 758 58 q 561 -6 604 1 q 482 -14 518 -14 q 256 49 360 -14 q 91 222 151 113 q 31 461 31 332 q 91 700 31 590 q 256 873 151 810 m 688 60 q 810 190 768 101 q 844 391 851 278 q 782 614 836 504 q 679 759 740 696 q 551 855 618 822 q 412 893 483 888 q 279 867 340 899 q 158 738 199 826 q 124 535 117 649 q 185 313 131 422 q 288 167 226 231 q 416 72 349 104 q 555 33 483 39 q 688 60 626 28 z "},"×":{"ha":651,"x_min":46,"x_max":604,"o":"m 604 626 l 390 413 l 585 218 l 544 178 l 350 372 l 131 153 l 46 238 l 265 457 l 71 650 l 111 692 l 306 497 l 519 711 l 604 626 z "},"Ø":{"ha":975,"x_min":36,"x_max":940,"o":"m 813 790 q 939 460 939 651 q 851 181 939 307 q 628 6 764 56 q 567 -8 610 -1 q 488 -15 524 -15 q 197 96 324 -15 l 97 -17 l 61 15 l 163 129 q 36 460 36 268 q 97 699 36 589 q 261 872 157 808 q 488 935 365 935 q 778 824 653 935 l 878 936 l 914 904 l 813 790 m 190 311 q 246 222 214 265 l 701 738 q 497 877 611 842 q 285 865 383 913 q 163 735 204 824 q 129 534 122 647 q 190 311 136 421 m 693 58 q 815 188 774 100 q 849 390 856 276 q 788 613 842 503 q 733 700 764 657 l 276 185 q 481 47 368 82 q 693 58 594 11 z "},"Ù":{"ha":828,"x_min":26,"x_max":800,"o":"m 464 978 l 418 978 l 268 1150 l 385 1150 l 464 978 m 678 921 l 799 922 l 799 904 q 760 865 772 896 q 749 765 749 833 l 749 353 q 663 78 749 165 q 433 -10 576 -10 q 301 8 363 -10 q 188 66 240 26 q 106 176 136 106 q 76 342 76 246 l 76 778 q 65 868 76 840 q 26 904 53 896 l 26 921 l 231 921 l 231 904 q 192 869 204 896 q 181 778 181 842 l 181 349 q 260 97 181 176 q 475 17 340 17 q 560 33 518 17 q 642 86 603 50 q 704 190 681 122 q 728 349 728 258 l 728 769 q 716 865 728 835 q 678 904 704 896 l 678 921 z "},"Ú":{"ha":828,"x_min":26,"x_max":800,"o":"m 608 1150 l 460 978 l 413 978 l 493 1150 l 608 1150 m 678 921 l 799 922 l 799 904 q 760 865 772 896 q 749 765 749 833 l 749 353 q 663 78 749 165 q 433 -10 576 -10 q 301 8 363 -10 q 188 66 240 26 q 106 176 136 106 q 76 342 76 246 l 76 778 q 65 868 76 840 q 26 904 53 896 l 26 921 l 231 921 l 231 904 q 192 869 204 896 q 181 778 181 842 l 181 349 q 260 97 181 176 q 475 17 340 17 q 560 33 518 17 q 642 86 603 50 q 704 190 681 122 q 728 349 728 258 l 728 769 q 716 865 728 835 q 678 904 704 896 l 678 921 z "},"Û":{"ha":828,"x_min":26,"x_max":800,"o":"m 413 1099 l 340 976 l 267 976 l 371 1147 l 454 1147 l 560 976 l 485 976 l 413 1099 m 678 921 l 799 922 l 799 904 q 760 865 772 896 q 749 765 749 833 l 749 353 q 663 78 749 165 q 433 -10 576 -10 q 301 8 363 -10 q 188 66 240 26 q 106 176 136 106 q 76 342 76 246 l 76 778 q 65 868 76 840 q 26 904 53 896 l 26 921 l 231 921 l 231 904 q 192 869 204 896 q 181 778 181 842 l 181 349 q 260 97 181 176 q 475 17 340 17 q 560 33 518 17 q 642 86 603 50 q 704 190 681 122 q 728 349 728 258 l 728 769 q 716 865 728 835 q 678 904 704 896 l 678 921 z "},"Ü":{"ha":828,"x_min":25,"x_max":800,"o":"m 394 994 q 385 985 394 994 q 349 976 376 976 q 303 994 321 976 q 286 1042 286 1013 q 304 1088 286 1069 q 349 1107 322 1107 q 394 1088 376 1107 q 413 1042 413 1069 q 394 994 413 1013 m 562 994 q 552 985 562 994 q 516 976 543 976 q 472 994 489 976 q 454 1042 454 1013 q 472 1088 454 1069 q 516 1107 489 1107 q 562 1088 543 1107 q 581 1042 581 1069 q 562 994 581 1013 m 678 921 l 799 921 l 799 904 q 760 865 772 896 q 749 765 749 833 l 749 353 q 663 78 749 165 q 433 -10 576 -10 q 301 8 363 -10 q 188 66 240 26 q 106 176 136 106 q 76 342 76 246 l 76 778 q 65 868 76 840 q 26 904 53 896 l 26 921 l 231 921 l 231 904 q 192 869 204 896 q 181 778 181 842 l 181 349 q 260 97 181 176 q 475 17 340 17 q 560 33 518 17 q 642 86 603 50 q 704 190 681 122 q 728 349 728 258 l 728 769 q 716 865 728 835 q 678 904 704 896 l 678 921 z "},"Ý":{"ha":708,"x_min":-8,"x_max":718,"o":"m 550 1147 l 401 976 l 354 976 l 435 1147 l 550 1147 m 589 921 l 717 921 l 717 904 q 658 863 689 893 q 606 793 628 832 l 403 419 l 403 169 q 413 59 403 89 q 454 19 424 29 l 454 3 l 247 3 l 247 19 q 287 60 276 29 q 297 169 297 90 l 297 417 l 114 761 q -8 904 40 885 l -8 922 l 204 922 l 204 906 q 208 800 158 892 q 397 450 397 450 q 590 808 576 782 q 605 845 600 826 q 607 882 610 864 q 589 906 604 900 l 589 921 z "},"ß":{"ha":776,"x_min":61,"x_max":753,"o":"m 707 332 q 753 213 753 281 q 680 56 753 121 q 494 -8 607 -8 q 339 36 406 -8 q 239 149 272 79 l 257 156 q 287 110 268 133 q 335 63 306 88 q 405 22 364 38 q 492 7 446 7 q 593 40 549 7 q 656 120 638 74 q 657 219 674 167 q 585 308 640 272 q 514 351 575 315 q 424 407 453 388 q 381 465 390 429 q 392 540 371 500 q 408 573 393 546 q 442 639 422 600 q 483 713 463 678 q 504 769 499 740 q 503 826 510 797 q 477 876 496 854 q 420 913 458 899 q 328 926 382 926 q 211 866 246 926 q 176 686 176 806 l 176 7 l 63 7 l 63 701 q 88 817 63 767 q 153 897 113 868 q 239 941 193 926 q 332 956 285 956 q 453 935 400 956 q 534 881 506 914 q 576 810 563 849 q 587 731 590 771 q 565 660 583 692 q 483 513 497 542 q 492 482 474 494 q 582 424 542 447 q 664 372 643 386 q 707 332 685 357 z "},"à":{"ha":610,"x_min":32,"x_max":588,"o":"m 322 754 l 276 754 l 126 925 l 243 925 l 322 754 m 535 165 q 545 59 535 89 q 586 19 556 29 l 585 6 l 568 8 q 528 9 542 8 q 495 13 514 10 q 467 24 476 17 q 450 45 457 32 q 443 79 443 58 l 443 108 q 435 97 440 104 q 409 73 429 90 q 365 42 389 56 q 302 17 342 28 q 219 6 263 6 q 90 56 146 6 q 33 186 33 107 q 65 291 33 244 q 142 365 96 338 q 247 410 189 392 q 354 436 306 429 q 443 443 403 443 q 437 501 443 472 q 415 558 431 529 q 369 606 400 588 q 292 624 338 624 q 233 608 260 624 q 191 569 206 592 q 166 524 176 546 q 153 485 156 501 l 150 469 l 68 469 q 82 518 68 490 q 122 574 96 546 q 193 621 147 601 q 292 640 239 640 q 469 582 403 640 q 535 417 535 524 l 535 165 m 443 129 l 443 426 q 346 414 396 426 q 247 376 296 401 q 166 303 197 351 q 135 193 135 256 q 165 104 135 143 q 241 51 196 65 q 342 57 286 38 q 443 129 397 76 z "},"á":{"ha":610,"x_min":33,"x_max":588,"o":"m 479 925 l 329 754 l 283 754 l 363 925 l 479 925 m 535 165 q 545 59 535 89 q 586 19 556 29 l 585 6 l 568 8 q 528 9 542 8 q 495 13 514 10 q 467 24 476 17 q 450 45 457 32 q 443 79 443 58 l 443 108 q 435 97 440 104 q 409 73 429 90 q 365 42 389 56 q 302 17 342 28 q 219 6 263 6 q 90 56 146 6 q 33 186 33 107 q 65 291 33 244 q 142 365 96 338 q 247 410 189 392 q 354 436 306 429 q 443 443 403 443 q 437 501 443 472 q 416 558 431 529 q 369 606 401 588 q 292 624 338 624 q 233 608 260 624 q 191 569 206 592 q 166 524 176 546 q 153 485 156 501 l 150 469 l 68 469 q 82 518 68 490 q 122 574 96 546 q 193 621 147 601 q 292 640 239 640 q 469 582 403 640 q 535 417 535 524 l 535 165 m 443 129 l 443 426 q 346 414 396 426 q 247 376 296 401 q 166 303 197 351 q 135 193 135 256 q 165 104 135 143 q 241 51 196 65 q 342 57 286 38 q 443 129 397 76 z "},"â":{"ha":610,"x_min":33,"x_max":588,"o":"m 288 876 l 215 754 l 142 754 l 246 925 l 329 925 l 433 754 l 360 754 l 288 876 m 535 165 q 545 59 535 89 q 586 19 556 29 l 585 6 l 568 8 q 528 9 542 8 q 495 13 514 10 q 467 24 476 17 q 450 45 457 32 q 443 79 443 58 l 443 108 q 435 97 440 104 q 409 73 429 90 q 365 42 389 56 q 302 17 342 28 q 219 6 263 6 q 90 56 146 6 q 33 186 33 107 q 65 291 33 244 q 142 365 96 338 q 247 410 189 392 q 354 436 306 429 q 443 443 403 443 q 437 501 443 472 q 416 558 431 529 q 369 606 401 588 q 292 624 338 624 q 233 608 260 624 q 191 569 206 592 q 166 524 176 546 q 153 485 156 501 l 150 469 l 68 469 q 82 518 68 490 q 122 574 96 546 q 193 621 147 601 q 292 640 239 640 q 469 582 403 640 q 535 417 535 524 l 535 165 m 443 129 l 443 426 q 346 414 396 426 q 247 376 296 401 q 166 303 197 351 q 135 193 135 256 q 165 104 135 143 q 241 51 196 65 q 342 57 286 38 q 443 129 397 76 z "},"ã":{"ha":610,"x_min":32,"x_max":588,"o":"m 228 817 q 151 772 183 817 l 151 840 q 160 850 154 844 q 191 865 167 856 q 243 875 215 875 q 319 854 274 875 q 390 833 364 833 q 424 844 406 833 q 454 865 443 854 l 465 875 l 465 810 q 423 783 440 789 q 369 778 406 778 q 299 797 347 778 q 228 817 250 817 m 535 165 q 545 59 535 89 q 586 19 556 29 l 585 6 l 568 8 q 528 9 542 8 q 495 13 514 10 q 467 24 476 17 q 450 45 457 32 q 443 79 443 58 l 443 108 q 435 97 440 104 q 409 73 429 90 q 365 42 389 56 q 302 17 342 28 q 219 6 263 6 q 90 56 146 6 q 33 186 33 107 q 65 291 33 244 q 142 365 96 338 q 247 410 189 392 q 354 436 306 429 q 443 443 403 443 q 437 501 443 472 q 416 558 431 529 q 369 606 401 588 q 292 624 338 624 q 233 608 260 624 q 191 569 206 592 q 166 524 176 546 q 153 485 156 501 l 150 469 l 68 469 q 82 518 68 490 q 122 574 96 546 q 193 621 147 601 q 292 640 239 640 q 469 582 403 640 q 535 417 535 524 l 535 165 m 443 129 l 443 426 q 346 414 396 426 q 247 376 296 401 q 166 303 197 351 q 135 193 135 256 q 165 104 135 143 q 241 51 196 65 q 342 57 286 38 q 443 129 397 76 z "},"ä":{"ha":610,"x_min":32,"x_max":588,"o":"m 243 772 q 234 763 243 772 q 197 754 225 754 q 152 772 169 754 q 135 819 135 790 q 152 865 135 847 q 197 883 169 883 q 243 865 225 883 q 261 819 261 846 q 243 772 261 790 m 410 772 q 401 763 410 772 q 365 754 392 754 q 320 772 338 754 q 303 819 303 790 q 320 865 303 847 q 365 883 338 883 q 410 865 392 883 q 428 819 428 846 q 410 772 428 790 m 535 165 q 545 59 535 89 q 586 19 556 29 l 585 6 l 568 8 q 528 9 542 8 q 495 13 514 10 q 467 24 476 17 q 450 45 457 32 q 443 79 443 58 l 443 108 q 435 97 440 104 q 409 73 429 90 q 365 42 389 56 q 302 17 342 28 q 219 6 263 6 q 90 56 146 6 q 33 186 33 107 q 65 291 33 244 q 142 365 96 338 q 247 410 189 392 q 354 436 306 429 q 443 443 403 443 q 437 501 443 472 q 416 558 431 529 q 369 606 401 588 q 292 624 338 624 q 233 608 260 624 q 191 569 206 592 q 166 524 176 546 q 153 485 156 501 l 150 469 l 68 469 q 82 518 68 490 q 122 574 96 546 q 193 621 147 601 q 292 640 239 640 q 469 582 403 640 q 535 417 535 524 l 535 165 m 443 129 l 443 426 q 346 414 396 426 q 247 376 296 401 q 166 303 197 351 q 135 193 135 256 q 165 104 135 143 q 241 51 196 65 q 342 57 286 38 q 443 129 397 76 z "},"å":{"ha":610,"x_min":33,"x_max":588,"o":"m 379 752 q 363 736 379 752 q 300 719 346 719 q 221 752 254 719 q 188 831 188 785 q 221 910 188 878 q 300 943 254 943 q 379 910 346 943 q 413 831 413 878 q 379 752 413 785 m 340 872 q 332 880 340 872 q 300 889 324 889 q 260 872 276 889 q 243 831 243 854 q 260 790 243 807 q 300 774 276 774 q 340 790 324 774 q 357 831 357 807 q 340 872 357 854 m 535 165 q 545 59 535 89 q 586 19 556 29 l 585 6 l 568 8 q 528 9 542 8 q 495 13 514 10 q 467 24 476 17 q 450 45 457 32 q 443 79 443 58 l 443 108 q 435 97 440 104 q 409 73 429 90 q 365 42 389 56 q 302 17 342 28 q 219 6 263 6 q 90 56 146 6 q 33 186 33 107 q 65 291 33 244 q 142 365 96 338 q 247 410 189 392 q 354 436 306 429 q 443 443 403 443 q 437 501 443 472 q 416 558 431 529 q 369 606 401 588 q 292 624 338 624 q 233 608 260 624 q 191 569 206 592 q 166 524 176 546 q 153 485 156 501 l 150 469 l 68 469 q 82 518 68 490 q 122 574 96 546 q 193 621 147 601 q 292 640 239 640 q 469 582 403 640 q 535 417 535 524 l 535 165 m 443 129 l 443 426 q 346 414 396 426 q 247 376 296 401 q 166 303 197 351 q 135 193 135 256 q 165 104 135 143 q 241 51 196 65 q 342 57 286 38 q 443 129 397 76 z "},"æ":{"ha":1075,"x_min":32,"x_max":1049,"o":"m 1040 181 l 1049 168 q 754 -4 917 -4 q 638 20 694 -4 q 539 89 581 44 q 554 42 543 57 q 586 19 565 26 l 585 6 l 568 8 q 528 9 542 8 q 495 13 514 10 q 467 24 476 17 q 450 45 457 32 q 443 79 443 58 l 443 108 q 435 97 440 104 q 409 73 429 90 q 365 42 389 56 q 302 17 342 28 q 219 6 263 6 q 90 56 146 6 q 33 186 33 107 q 65 291 33 244 q 142 365 96 338 q 247 410 189 392 q 354 436 306 429 q 443 443 403 443 q 437 501 443 472 q 416 558 431 529 q 369 606 401 588 q 292 624 338 624 q 233 608 260 624 q 191 569 206 592 q 166 524 176 546 q 153 485 156 501 l 150 469 l 68 469 q 82 518 68 490 q 122 574 96 546 q 193 621 147 601 q 292 640 239 640 q 435 606 376 640 q 519 506 494 571 q 629 605 563 569 q 767 640 696 640 q 963 574 890 640 q 1038 421 1035 508 l 542 421 q 537 354 533 392 q 547 278 540 317 q 577 201 554 239 q 630 135 600 164 q 708 88 660 106 q 815 69 756 69 q 1040 181 943 69 m 764 629 q 628 573 697 629 q 543 435 560 517 l 883 435 q 918 453 906 435 q 928 497 931 472 q 877 590 921 550 q 764 629 833 629 m 443 129 l 443 426 q 346 414 396 426 q 247 376 296 401 q 166 303 197 351 q 135 193 135 256 q 165 104 135 143 q 241 51 196 65 q 342 57 286 38 q 443 129 397 76 z "},"ç":{"ha":642,"x_min":32,"x_max":624,"o":"m 624 167 q 357 -3 504 11 l 353 -39 q 364 -43 357 -40 q 388 -56 371 -46 q 417 -77 404 -65 q 437 -111 429 -89 q 440 -158 444 -133 q 411 -210 433 -190 q 361 -237 389 -231 q 306 -244 333 -243 q 260 -242 279 -244 l 242 -239 l 246 -186 q 260 -187 251 -186 q 292 -190 269 -189 q 333 -187 315 -190 q 367 -175 351 -185 q 386 -149 383 -165 q 367 -102 392 -121 q 315 -79 342 -83 l 288 -74 l 297 -4 q 110 88 188 7 q 33 300 33 168 q 110 522 33 425 q 307 636 186 618 q 588 515 504 664 l 501 489 q 494 504 499 494 q 474 538 490 514 q 438 579 457 561 q 385 612 418 597 q 315 624 353 626 q 168 544 219 619 q 117 361 117 469 q 192 149 117 229 q 390 68 268 68 q 615 179 518 68 l 624 167 z "},"è":{"ha":650,"x_min":32,"x_max":624,"o":"m 426 754 l 379 754 l 231 925 l 346 925 l 426 754 m 615 181 l 624 168 q 328 -4 490 -4 q 188 30 254 -4 q 78 135 122 64 q 33 301 33 207 q 60 443 33 378 q 131 551 88 508 q 230 617 175 593 q 342 640 285 640 q 538 574 465 640 q 613 421 610 508 l 117 421 q 111 354 108 392 q 122 278 114 317 q 151 201 129 239 q 204 135 174 164 q 283 88 235 106 q 390 69 331 69 q 615 181 518 69 m 338 629 q 203 573 272 629 q 118 435 133 517 l 457 435 q 493 453 481 435 q 503 497 506 472 q 452 590 496 550 q 338 629 408 629 z "},"é":{"ha":650,"x_min":33,"x_max":624,"o":"m 515 925 l 365 754 l 318 754 l 399 925 l 515 925 m 615 181 l 624 168 q 328 -4 490 -4 q 188 30 254 -4 q 78 135 122 64 q 33 301 33 207 q 60 443 33 378 q 131 551 88 508 q 230 617 175 593 q 342 640 285 640 q 538 574 465 640 q 613 421 610 508 l 117 421 q 111 354 108 392 q 122 278 114 317 q 151 201 129 239 q 204 135 174 164 q 283 88 235 106 q 390 69 331 69 q 615 181 518 69 m 338 629 q 203 573 272 629 q 118 435 133 517 l 457 435 q 493 453 481 435 q 503 497 506 472 q 452 590 496 550 q 338 629 408 629 z "},"ê":{"ha":650,"x_min":32,"x_max":624,"o":"m 328 875 l 256 753 l 182 753 l 288 925 l 369 925 l 475 753 l 401 753 l 328 875 m 615 181 l 624 168 q 328 -4 490 -4 q 188 30 254 -4 q 78 135 122 64 q 33 301 33 207 q 60 443 33 378 q 131 551 88 508 q 230 617 175 593 q 342 640 285 640 q 538 574 465 640 q 613 421 610 508 l 117 421 q 111 354 108 392 q 122 278 114 317 q 151 201 129 239 q 204 135 174 164 q 283 88 235 106 q 390 69 331 69 q 615 181 518 69 m 338 629 q 203 573 272 629 q 118 435 133 517 l 457 435 q 493 453 481 435 q 503 497 506 472 q 452 590 496 550 q 338 629 408 629 z "},"ë":{"ha":650,"x_min":32,"x_max":624,"o":"m 289 772 q 280 763 289 772 q 244 754 271 754 q 199 772 217 754 q 182 819 182 790 q 199 865 182 847 q 244 883 217 883 q 289 865 271 883 q 307 819 307 846 q 289 772 307 790 m 457 772 q 448 763 457 772 q 411 754 439 754 q 366 772 383 754 q 349 819 349 790 q 366 865 349 847 q 410 883 383 883 q 456 865 438 883 q 475 819 475 846 q 457 772 475 790 m 615 181 l 624 168 q 328 -4 490 -4 q 188 30 254 -4 q 78 135 122 64 q 33 301 33 207 q 60 443 33 378 q 131 551 88 508 q 230 617 175 593 q 342 640 285 640 q 538 574 465 640 q 613 421 610 508 l 117 421 q 111 354 108 392 q 122 278 114 317 q 151 201 129 239 q 204 135 174 164 q 283 88 235 106 q 390 69 331 69 q 615 181 518 69 m 338 629 q 203 573 272 629 q 118 435 133 517 l 457 435 q 493 453 481 435 q 503 497 506 472 q 452 590 496 550 q 338 629 408 629 z "},"ì":{"ha":256,"x_min":-32,"x_max":228,"o":"m 164 754 l 117 754 l -32 925 l 85 925 l 164 754 m 176 144 q 181 68 176 92 q 194 35 185 44 q 226 17 203 26 l 226 6 l 29 6 l 29 19 q 71 50 60 26 q 82 146 82 74 q 82 604 82 563 l 32 619 l 32 640 l 176 600 l 176 144 z "},"í":{"ha":256,"x_min":29,"x_max":276,"o":"m 275 925 l 126 754 l 79 754 l 160 925 l 275 925 m 176 144 q 181 68 176 92 q 194 35 185 44 q 226 17 203 26 l 226 6 l 29 6 l 29 19 q 71 50 60 26 q 82 146 82 74 q 82 604 82 563 l 32 619 l 32 640 l 176 600 l 176 144 z "},"î":{"ha":253,"x_min":-18,"x_max":275,"o":"m 128 876 l 56 754 l -18 754 l 88 925 l 169 925 l 275 754 l 201 754 l 128 876 m 175 144 q 180 68 175 92 q 193 35 185 44 q 226 17 201 26 l 226 6 l 28 6 l 28 19 q 69 50 58 26 q 81 146 81 74 q 81 604 81 563 l 31 619 l 31 640 l 175 600 l 175 144 z "},"ï":{"ha":254,"x_min":-22,"x_max":274,"o":"m 164 866 q 173 875 164 866 q 209 885 182 885 q 254 866 236 885 q 272 819 272 847 q 254 772 272 790 q 208 754 236 754 q 163 772 181 754 q 146 819 146 790 q 164 866 146 847 m 106 819 q 88 772 106 790 q 42 754 69 754 q -3 772 14 754 q -21 819 -21 790 q -3 866 -21 847 q 41 885 14 885 q 87 866 68 885 q 106 819 106 847 m 176 144 q 181 68 176 92 q 194 35 185 44 q 226 17 203 26 l 226 6 l 28 6 l 28 19 q 70 50 60 26 q 81 146 81 74 q 81 604 81 563 l 31 619 l 31 640 l 176 600 l 176 144 z "},"ñ":{"ha":683,"x_min":28,"x_max":660,"o":"m 264 821 q 188 775 219 821 l 188 844 q 197 854 190 849 q 227 869 203 860 q 279 879 251 879 q 355 858 310 879 q 426 838 400 838 q 460 848 442 838 q 490 868 479 858 l 501 879 l 501 814 q 460 788 476 793 q 406 782 443 782 q 335 801 383 781 q 264 821 286 821 m 607 169 q 618 60 607 92 q 660 21 629 29 l 660 10 l 464 10 l 464 24 q 504 61 493 31 q 515 169 515 92 l 515 403 q 472 556 515 504 q 346 608 429 608 q 176 538 272 608 l 176 149 q 181 72 176 96 q 194 40 185 49 q 226 21 203 31 l 226 10 l 29 10 l 29 24 q 71 54 60 31 q 82 150 82 78 q 82 608 82 567 l 32 624 l 32 644 l 176 603 l 176 556 q 411 644 310 644 q 556 589 506 644 q 607 428 607 533 l 607 169 z "},"ò":{"ha":719,"x_min":33,"x_max":686,"o":"m 396 757 l 349 757 l 199 929 l 315 929 l 396 757 m 360 644 q 479 625 422 644 q 583 568 536 606 q 657 469 629 531 q 685 328 685 407 q 635 154 685 231 q 513 39 586 78 q 360 0 440 0 q 242 19 299 0 q 138 76 185 39 q 62 175 90 113 q 33 315 33 238 q 82 491 33 414 q 204 606 131 568 q 360 644 278 644 m 397 21 q 490 42 450 21 q 551 97 529 63 q 584 172 574 132 q 594 254 594 211 q 563 417 594 333 q 466 564 531 501 q 324 626 401 626 l 313 626 q 176 558 226 622 q 125 386 125 494 q 143 267 125 329 q 194 149 161 204 q 281 57 228 93 q 397 21 335 21 z "},"ó":{"ha":719,"x_min":33,"x_max":686,"o":"m 524 925 l 375 754 l 328 754 l 408 925 l 524 925 m 360 640 q 479 621 422 640 q 583 565 536 601 q 657 465 629 528 q 685 324 685 403 q 635 150 685 226 q 513 35 586 74 q 360 -4 440 -4 q 242 15 299 -4 q 138 72 185 35 q 62 172 90 110 q 33 311 33 233 q 82 487 33 410 q 204 602 131 564 q 360 640 278 640 m 397 17 q 490 38 450 17 q 551 93 529 58 q 584 167 574 128 q 594 250 594 207 q 563 413 594 329 q 466 560 531 497 q 324 622 401 622 l 313 622 q 176 554 226 618 q 125 383 125 490 q 143 263 125 325 q 194 144 161 200 q 281 53 228 89 q 397 17 335 17 z "},"ô":{"ha":719,"x_min":33,"x_max":686,"o":"m 358 876 l 286 754 l 211 754 l 317 925 l 400 925 l 504 754 l 431 754 l 358 876 m 360 640 q 479 621 422 640 q 583 565 536 601 q 657 465 629 528 q 685 324 685 403 q 635 150 685 226 q 513 35 586 74 q 360 -4 440 -4 q 242 15 299 -4 q 138 72 185 35 q 62 172 90 110 q 33 311 33 233 q 82 487 33 410 q 204 602 131 564 q 360 640 278 640 m 397 17 q 490 38 450 17 q 551 93 529 58 q 584 167 574 128 q 594 250 594 207 q 563 413 594 329 q 466 560 531 497 q 324 622 401 622 l 313 622 q 176 554 226 618 q 125 383 125 490 q 143 263 125 325 q 194 144 161 200 q 281 53 228 89 q 397 17 335 17 z "},"õ":{"ha":719,"x_min":32,"x_max":686,"o":"m 279 817 q 240 806 258 817 q 211 783 221 794 l 203 772 l 203 840 q 213 850 206 844 q 243 865 219 856 q 294 875 267 875 q 370 854 325 875 q 442 833 415 833 q 476 844 457 833 q 506 865 494 854 l 517 875 l 517 810 q 476 783 493 789 q 422 778 458 778 q 351 797 399 778 q 279 817 303 817 m 360 640 q 479 621 422 640 q 583 565 536 601 q 657 465 629 528 q 685 324 685 403 q 635 150 685 226 q 513 35 586 74 q 360 -4 440 -4 q 242 15 299 -4 q 138 72 185 35 q 62 172 90 110 q 33 311 33 233 q 82 487 33 410 q 204 602 131 564 q 360 640 278 640 m 397 17 q 490 38 450 17 q 551 93 529 58 q 584 167 574 128 q 594 250 594 207 q 563 413 594 329 q 466 560 531 497 q 324 622 401 622 l 313 622 q 176 554 226 618 q 125 383 125 490 q 143 263 125 325 q 194 144 161 200 q 281 53 228 89 q 397 17 335 17 z "},"ö":{"ha":719,"x_min":33,"x_max":686,"o":"m 310 772 q 301 763 310 772 q 264 754 292 754 q 219 772 236 754 q 201 819 201 790 q 219 865 201 847 q 263 883 236 883 q 309 865 290 883 q 328 819 328 846 q 310 772 328 790 m 476 772 q 467 763 476 772 q 431 754 458 754 q 385 772 403 754 q 368 819 368 790 q 386 865 368 847 q 431 883 404 883 q 476 865 458 883 q 494 819 494 846 q 476 772 494 790 m 360 640 q 479 621 422 640 q 583 565 536 601 q 657 465 629 528 q 685 324 685 403 q 635 150 685 226 q 513 35 586 74 q 360 -4 440 -4 q 242 15 299 -4 q 138 72 185 35 q 62 172 90 110 q 33 311 33 233 q 82 487 33 410 q 204 602 131 564 q 360 640 278 640 m 397 17 q 490 38 450 17 q 551 93 529 58 q 584 167 574 128 q 594 250 594 207 q 563 413 594 329 q 466 560 531 497 q 324 622 401 622 l 313 622 q 176 554 226 618 q 125 383 125 490 q 143 263 125 325 q 194 144 161 200 q 281 53 228 89 q 397 17 335 17 z "},"ø":{"ha":722,"x_min":33,"x_max":688,"o":"m 578 571 q 686 325 686 483 q 637 151 686 228 q 515 36 588 75 q 361 -3 442 -3 q 183 43 264 -3 l 104 -64 l 65 -35 l 144 69 q 35 313 35 157 q 83 488 35 411 q 206 603 132 565 q 361 642 279 642 q 538 597 460 642 l 617 703 l 656 674 l 578 571 m 126 385 q 199 143 126 254 l 492 536 q 325 624 418 624 l 315 624 q 177 556 228 619 q 126 385 126 492 m 399 18 q 491 39 451 18 q 553 94 531 60 q 585 169 575 129 q 596 251 596 208 q 576 375 596 310 q 522 494 557 440 l 229 103 q 399 18 303 18 z "},"ù":{"ha":674,"x_min":25,"x_max":647,"o":"m 388 754 l 340 754 l 190 925 l 307 925 l 388 754 m 593 81 q 599 52 593 64 q 610 35 604 40 q 626 26 617 29 q 639 24 635 24 q 646 24 643 24 l 646 6 l 604 6 q 538 31 567 7 q 500 92 508 56 q 272 7 371 7 q 126 63 176 7 q 75 222 75 118 q 75 604 75 600 l 25 619 l 25 640 l 169 600 l 169 249 q 338 43 169 43 q 499 107 407 43 q 499 604 499 593 l 449 619 l 449 640 l 593 600 l 593 211 l 593 81 z "},"ú":{"ha":674,"x_min":25,"x_max":647,"o":"m 532 925 l 382 754 l 335 754 l 415 925 l 532 925 m 593 81 q 599 52 593 64 q 610 35 604 40 q 626 26 617 29 q 639 24 635 24 q 646 24 643 24 l 646 6 l 604 6 q 538 31 567 7 q 500 92 508 56 q 272 7 371 7 q 126 63 176 7 q 75 222 75 118 q 75 604 75 600 l 25 619 l 25 640 l 169 600 l 169 249 q 338 43 169 43 q 499 107 407 43 q 499 604 499 593 l 449 619 l 449 640 l 593 600 l 593 211 l 593 81 z "},"û":{"ha":674,"x_min":25,"x_max":647,"o":"m 335 875 l 263 753 l 189 753 l 294 924 l 376 924 l 482 753 l 408 753 l 335 875 m 593 82 q 599 53 593 65 q 610 36 604 42 q 626 28 617 31 q 639 25 635 25 q 646 25 643 25 l 646 7 l 604 7 q 538 31 567 7 q 500 93 508 56 q 272 8 371 8 q 126 64 176 8 q 75 224 75 119 q 75 606 75 600 l 25 619 l 25 642 l 169 600 l 169 249 q 338 44 169 44 q 499 108 407 44 q 499 606 499 594 l 449 619 l 449 642 l 593 600 l 593 213 l 593 82 z "},"ü":{"ha":674,"x_min":25,"x_max":647,"o":"m 297 764 q 288 755 297 764 q 251 746 279 746 q 206 764 224 746 q 189 811 189 782 q 206 858 189 839 q 251 876 224 876 q 297 858 278 876 q 315 811 315 839 q 297 764 315 782 m 464 764 q 455 755 464 764 q 418 746 446 746 q 374 764 390 746 q 357 811 357 782 q 374 858 357 839 q 419 876 392 876 q 464 858 446 876 q 482 811 482 839 q 464 764 482 782 m 593 75 q 646 18 600 21 l 646 0 l 604 0 q 538 24 567 0 q 500 86 508 49 q 272 1 371 1 q 126 57 176 1 q 75 217 75 113 q 75 599 75 594 l 25 613 l 25 635 l 169 593 l 169 242 q 338 38 169 38 q 499 101 407 38 q 499 599 499 588 l 449 613 l 449 635 l 593 593 l 593 75 z "},"ý":{"ha":672,"x_min":0,"x_max":672,"o":"m 532 924 l 383 753 l 336 753 l 417 924 l 532 924 m 521 642 l 672 642 l 672 628 q 617 598 646 628 q 561 499 588 568 q 296 -129 556 486 q 245 -207 275 -178 q 188 -242 215 -236 q 135 -247 160 -247 q 94 -239 110 -246 l 79 -233 l 100 -175 q 115 -182 106 -178 q 149 -191 124 -186 q 195 -194 174 -196 q 240 -176 217 -193 q 278 -128 264 -160 l 336 7 l 315 7 q 111 499 128 453 q 55 597 85 567 q 0 628 25 628 l 0 642 l 236 642 l 236 626 q 214 507 169 626 q 376 104 250 408 q 543 507 517 436 q 521 626 588 626 l 521 642 z "},"ÿ":{"ha":672,"x_min":0,"x_max":672,"o":"m 341 771 q 332 762 341 771 q 295 753 322 753 q 251 771 268 753 q 233 818 233 789 q 251 864 233 846 q 295 882 268 882 q 341 864 322 882 q 360 818 360 846 q 341 771 360 789 m 508 771 q 499 762 508 771 q 463 753 490 753 q 417 771 435 753 q 400 818 400 789 q 417 864 400 846 q 463 882 435 882 q 508 864 490 882 q 526 818 526 846 q 508 771 526 789 m 521 642 l 672 642 l 672 628 q 617 597 646 628 q 561 499 588 567 q 296 -129 556 486 q 245 -207 275 -178 q 188 -242 215 -236 q 135 -247 160 -247 q 94 -239 110 -246 l 79 -233 l 100 -175 q 115 -182 106 -178 q 149 -191 124 -186 q 195 -194 174 -196 q 240 -176 217 -193 q 278 -128 264 -160 l 336 7 l 315 7 q 111 499 128 453 q 55 597 85 567 q 0 628 25 628 l 0 642 l 236 642 l 236 626 q 214 507 169 626 q 376 104 250 408 q 543 507 517 436 q 521 626 588 626 l 521 642 z "},"ı":{"ha":256,"x_min":29,"x_max":228,"o":"m 176 146 q 181 69 176 93 q 194 37 185 46 q 226 18 203 28 l 226 7 l 29 7 l 29 21 q 71 51 60 28 q 82 147 82 75 q 82 606 82 564 l 32 619 l 32 642 l 176 600 l 176 146 z "},"Œ":{"ha":1450,"x_min":31,"x_max":1429,"o":"m 1415 181 l 1429 178 l 1418 3 l 796 3 l 796 19 q 835 62 825 29 q 846 183 846 94 q 622 8 760 58 q 561 -6 604 1 q 482 -14 518 -14 q 256 49 360 -14 q 91 222 151 113 q 31 461 31 332 q 91 700 31 590 q 256 873 151 810 q 482 936 360 936 q 688 884 593 936 q 846 742 783 832 l 846 774 q 835 868 846 840 q 796 904 825 896 l 796 921 l 1119 921 l 1383 921 l 1397 751 l 1383 747 q 1293 867 1351 832 q 1136 901 1235 901 l 950 903 l 950 486 q 1063 525 1001 525 q 1126 517 1094 525 q 1175 502 1157 510 q 1217 495 1193 494 q 1267 508 1242 496 l 1267 450 q 1229 435 1249 439 q 1171 439 1210 432 q 1072 467 1132 446 q 950 457 994 494 l 950 82 q 1007 22 950 22 l 1171 22 q 1324 57 1267 22 q 1415 181 1382 92 m 688 60 q 809 190 768 101 q 843 391 850 278 q 782 614 836 504 q 679 759 740 696 q 551 855 618 822 q 412 893 483 888 q 279 867 340 899 q 158 738 199 826 q 124 535 117 649 q 185 313 131 422 q 288 167 226 231 q 416 72 349 104 q 555 33 483 39 q 688 60 626 28 z "},"œ":{"ha":1225,"x_min":33,"x_max":1199,"o":"m 1190 181 l 1199 168 q 904 -4 1067 -4 q 751 38 824 -4 q 640 157 679 81 q 519 39 596 82 q 360 -4 442 -4 q 242 15 299 -4 q 138 72 185 35 q 62 172 90 110 q 33 311 33 233 q 82 487 33 410 q 204 602 131 564 q 360 640 278 640 q 532 599 453 640 q 651 476 611 557 q 765 597 693 554 q 917 640 838 640 q 1113 574 1040 640 q 1188 421 1185 508 l 692 421 q 687 354 683 392 q 697 278 690 317 q 727 201 704 239 q 780 135 750 164 q 858 88 810 106 q 965 69 906 69 q 1190 181 1093 69 m 914 629 q 778 573 847 629 q 693 435 708 517 l 1033 435 q 1068 453 1056 435 q 1078 497 1081 472 q 1027 590 1071 550 q 914 629 983 629 m 397 17 q 490 38 450 17 q 551 93 529 58 q 584 167 574 128 q 594 250 594 207 q 563 413 594 329 q 466 560 531 497 q 324 622 401 622 l 313 622 q 176 554 226 618 q 125 383 125 490 q 143 263 125 325 q 194 144 161 200 q 281 53 228 89 q 397 17 335 17 z "},"Š":{"ha":657,"x_min":25,"x_max":632,"o":"m 369 976 l 288 976 l 182 1147 l 256 1147 l 329 1025 l 401 1147 l 475 1147 l 369 976 m 360 517 q 443 482 413 496 q 515 443 474 468 q 577 394 556 418 q 615 333 599 369 q 631 253 631 296 q 585 113 631 175 q 472 21 540 51 q 328 -10 404 -10 q 139 39 222 -10 q 26 171 56 88 l 107 197 q 115 176 110 189 q 139 131 119 164 q 182 74 158 99 q 247 28 206 49 q 333 7 288 7 q 487 58 425 7 q 549 188 549 108 q 531 256 549 224 q 492 310 514 289 q 431 356 471 332 q 366 390 390 379 q 299 419 342 401 q 288 424 290 422 q 185 471 224 450 q 110 522 146 492 q 59 591 75 553 q 43 681 43 629 q 128 861 43 792 q 328 931 213 931 q 477 893 401 931 q 583 796 553 856 l 503 763 q 496 779 500 769 q 476 814 492 789 q 440 858 460 839 q 386 894 421 878 q 311 910 351 910 q 178 863 233 910 q 122 736 122 817 q 137 673 122 703 q 169 624 151 643 q 223 583 188 604 q 281 552 258 563 q 344 524 303 542 q 360 517 354 519 z "},"š":{"ha":517,"x_min":33,"x_max":485,"o":"m 300 753 l 218 753 l 113 924 l 186 924 l 258 801 l 332 924 l 406 924 l 300 753 m 293 374 q 349 354 329 361 q 398 332 368 347 q 444 300 428 317 q 472 256 460 283 q 485 196 485 229 q 422 60 485 118 q 249 3 360 3 q 36 64 125 3 q 33 67 33 67 l 60 113 q 81 92 68 103 q 122 61 94 81 q 186 29 149 42 q 263 17 224 17 q 374 51 326 17 q 422 136 422 85 q 411 185 422 164 q 386 222 400 207 q 342 250 372 236 q 294 271 313 264 q 236 290 275 278 q 83 367 133 322 q 33 492 33 413 q 44 538 33 513 q 75 588 54 563 q 134 629 96 613 q 219 646 172 646 q 297 635 258 646 q 364 610 336 625 q 413 581 392 596 q 446 556 435 567 l 457 546 l 425 496 q 417 510 422 501 q 392 542 411 519 q 352 583 374 565 q 295 616 331 601 q 222 631 260 631 q 131 602 168 631 q 93 526 93 574 q 106 474 93 497 q 148 434 119 451 q 203 405 176 417 q 275 379 231 393 l 293 374 z "},"Ÿ":{"ha":708,"x_min":-8,"x_max":718,"o":"m 315 994 q 306 985 315 994 q 269 976 297 976 q 225 994 242 976 q 208 1042 208 1013 q 226 1088 208 1069 q 270 1107 243 1107 q 315 1088 297 1107 q 333 1042 333 1069 q 315 994 333 1013 m 483 994 q 474 985 483 994 q 438 976 465 976 q 392 994 410 976 q 375 1042 375 1013 q 392 1088 375 1069 q 437 1107 410 1107 q 483 1088 464 1107 q 501 1042 501 1069 q 483 994 501 1013 m 589 921 l 717 921 l 717 904 q 658 863 689 893 q 606 793 628 832 l 403 419 l 403 169 q 413 59 403 89 q 454 19 424 29 l 454 3 l 247 3 l 247 19 q 287 60 276 29 q 297 169 297 90 l 297 417 l 114 761 q -8 904 40 885 l -8 922 l 204 922 l 204 906 q 208 800 158 892 q 397 450 397 450 q 590 808 576 782 q 605 845 600 826 q 607 882 610 864 q 589 906 604 900 l 589 921 z "},"Ž":{"ha":667,"x_min":8,"x_max":650,"o":"m 371 975 l 288 975 l 183 1147 l 257 1147 l 329 1024 l 401 1147 l 476 1147 l 371 975 m 636 175 l 649 175 l 626 3 l 10 3 l 10 19 l 526 900 l 308 900 q 162 865 213 900 q 76 738 111 829 l 63 738 l 82 922 l 647 921 l 647 904 l 126 24 l 383 24 q 551 56 499 24 q 636 175 604 89 z "},"ž":{"ha":549,"x_min":18,"x_max":528,"o":"m 314 751 l 232 751 l 126 924 l 200 924 l 274 800 l 346 924 l 419 924 l 314 751 m 513 147 l 526 147 l 504 7 l 19 7 l 19 21 l 397 624 l 239 624 q 126 583 178 624 q 57 486 75 543 l 44 486 l 71 642 l 513 642 l 513 629 l 128 26 l 328 25 q 406 38 371 25 q 460 68 440 50 q 492 104 479 86 q 508 135 504 122 l 513 147 z "},"–":{"ha":624,"x_min":36,"x_max":588,"o":"m 588 306 l 36 306 l 36 385 l 588 385 l 588 306 z "},"—":{"ha":788,"x_min":36,"x_max":751,"o":"m 751 306 l 36 306 l 36 385 l 751 385 l 751 306 z "},"‘":{"ha":236,"x_min":47,"x_max":190,"o":"m 174 694 q 183 685 178 693 q 189 664 189 676 q 174 628 189 643 q 133 613 160 613 q 74 641 101 613 q 47 719 47 669 q 86 812 47 774 q 176 864 125 850 l 189 835 q 108 749 108 797 q 124 714 108 725 q 174 694 140 703 z "},"’":{"ha":236,"x_min":44,"x_max":189,"o":"m 103 864 q 160 836 133 864 q 188 758 188 808 q 149 665 188 703 q 58 613 110 628 l 46 642 q 126 729 126 679 q 110 764 126 753 q 63 783 94 775 q 51 792 57 783 q 46 814 46 801 q 61 849 46 835 q 103 864 76 864 z "},"‚":{"ha":197,"x_min":33,"x_max":176,"o":"m 90 53 q 148 25 121 53 q 175 -54 175 -3 q 136 -147 175 -108 q 46 -199 97 -185 l 33 -169 q 114 -83 114 -132 q 98 -49 114 -60 q 50 -29 82 -37 q 39 -19 44 -28 q 33 3 33 -10 q 49 38 33 22 q 90 53 64 53 z "},"“":{"ha":394,"x_min":47,"x_max":349,"o":"m 189 835 q 108 749 108 797 q 124 714 108 725 q 174 694 140 703 q 183 685 178 693 q 189 664 189 676 q 174 628 189 643 q 133 613 160 613 q 74 641 101 613 q 47 719 47 669 q 86 813 47 775 q 176 864 125 850 l 189 835 m 332 694 q 343 685 338 693 q 349 664 349 676 q 333 628 349 643 q 292 613 318 613 q 233 641 260 613 q 206 719 206 669 q 244 813 206 775 q 335 864 283 850 l 349 835 q 268 749 268 797 q 284 714 268 725 q 332 694 300 703 z "},"”":{"ha":394,"x_min":46,"x_max":347,"o":"m 261 864 q 320 836 293 864 q 347 758 347 808 q 308 665 347 703 q 218 613 269 628 l 204 642 q 285 729 285 679 q 269 764 285 753 q 221 783 253 775 q 210 792 215 783 q 204 814 204 801 q 219 849 204 835 q 261 864 235 864 m 103 865 q 160 837 133 865 q 188 758 188 808 q 149 665 188 703 q 58 613 110 628 l 46 642 q 126 729 126 679 q 110 764 126 753 q 63 783 94 775 q 51 792 57 783 q 46 814 46 801 q 61 850 46 835 q 103 865 76 865 z "},"„":{"ha":356,"x_min":33,"x_max":335,"o":"m 249 53 q 308 25 281 53 q 335 -54 335 -3 q 296 -147 335 -108 q 206 -199 257 -185 l 192 -169 q 272 -83 272 -132 q 256 -49 272 -60 q 208 -29 240 -37 q 197 -19 203 -28 q 192 3 192 -10 q 207 38 192 22 q 249 53 222 53 m 90 53 q 148 25 121 53 q 175 -54 175 -3 q 136 -146 175 -108 q 46 -199 97 -183 l 33 -169 q 114 -83 114 -132 q 98 -49 114 -60 q 50 -29 82 -37 q 39 -19 44 -28 q 33 3 33 -10 q 49 38 33 22 q 90 53 64 53 z "},"†":{"ha":600,"x_min":29,"x_max":571,"o":"m 346 776 l 569 776 l 569 685 l 346 685 l 346 -153 l 251 -153 l 251 685 l 29 685 l 29 776 l 251 776 l 251 1029 l 346 1029 l 346 776 z "},"•":{"ha":335,"x_min":47,"x_max":288,"o":"m 165 554 q 253 519 218 554 q 288 431 288 483 q 253 342 288 376 q 165 307 218 307 q 80 342 113 307 q 47 431 47 376 q 81 519 47 483 q 165 554 114 554 z "},"‹":{"ha":361,"x_min":44,"x_max":315,"o":"m 147 419 l 314 153 l 213 153 l 46 419 l 213 686 l 313 686 l 147 419 z "},"›":{"ha":360,"x_min":44,"x_max":314,"o":"m 147 686 l 313 419 l 146 153 l 46 153 l 211 419 l 44 686 l 147 686 z "},"€":{"ha":850,"x_min":44,"x_max":810,"o":"m 803 156 l 810 118 q 557 7 696 7 q 339 69 436 7 q 185 238 242 132 q 139 369 153 297 l 63 369 l 63 413 l 131 413 q 128 471 128 443 q 132 535 128 503 l 44 535 l 44 578 l 139 578 q 185 703 154 646 q 338 872 242 810 q 549 933 435 933 q 760 871 663 933 q 760 870 760 871 q 761 869 761 869 l 761 825 q 561 896 667 896 q 385 861 467 896 q 290 772 338 842 q 240 604 242 701 q 243 578 240 603 l 606 578 l 606 535 l 250 535 q 288 413 261 482 l 624 413 l 624 369 l 304 369 q 304 368 304 368 q 429 157 367 219 q 629 69 514 69 q 803 156 711 69 z "}}}
